<?xml version="1.0" encoding="utf-8"?>
<!-- Generator: Adobe Illustrator 24.3.0, SVG Export Plug-In . SVG Version: 6.00 Build 0)  -->
<svg version="1.1" id="a9bf0661-4ff9-474e-842c-2ecc0dde3355"
	 xmlns="http://www.w3.org/2000/svg" xmlns:xlink="http://www.w3.org/1999/xlink" x="0px" y="0px" viewBox="0 0 864 645"
	 style="enable-background:new 0 0 864 645;" xml:space="preserve">
<style type="text/css">
	.st0{fill:#F5F5F5;}
	.st1{fill:#1A2E35;}
	.st2{fill:#FFFFFF;}
	.st3{fill:#FFC3BD;}
	.st4{fill:#007CFF;}
	.st5{opacity:0.5;fill:#FFFFFF;}
	.st6{opacity:0.2;}
	.st7{opacity:0.1;fill:#FFFFFF;}
	.st8{fill:#FF847F;}
	.st9{opacity:0.5;fill:#007CFF;}
	.st10{fill:#E1E1E1;}
	.st11{opacity:0.8;fill:#FFFFFF;}
	.st12{opacity:0.4;fill:#007CFF;}
	.st13{opacity:0.6;}
</style>
<ellipse id="_x3C_Path_x3E__160_" class="st0" cx="430.4" cy="621.8" rx="326.4" ry="19.1"/>
<g>
	<g>
		<path class="st1" d="M232,135.4c-10,2.2-21.5,16.2-10.1,30.4c11.4,14.3-7.7,8-10.7,33c-3,25,19.8,20.8,12.6,37.1
			c-7.1,16.4,42.4,42.3,73.3,22.6c30.9-19.7,33.8-62,24.1-76.9c-9.7-14.9-23.8-15.9-17.4-31.9c6.4-16-1.1-32.7-21.1-32.8
			c-15-0.1-6-10.6-26.7-10.5C238.8,106.5,223.5,118.7,232,135.4z"/>
		<path class="st2" d="M287.4,156.3c-2.7,0-4.9,2.2-4.9,4.9c0,2.7,2.2,4.9,4.9,4.9c2.7,0,4.9-2.2,4.9-4.9
			C292.3,158.5,290.1,156.3,287.4,156.3z M287.4,165c-2.1,0-3.8-1.7-3.8-3.8c0-2.1,1.7-3.8,3.8-3.8c2.1,0,3.8,1.7,3.8,3.8
			C291.2,163.3,289.5,165,287.4,165z"/>
		<path class="st1" d="M328.9,204.2C328.8,204.2,328.8,204.2,328.9,204.2c-0.3-0.1-0.5-0.3-0.4-0.5c1.5-7.8-4.6-15.4-11.1-23.5
			c-7.5-9.4-16.1-20-13.1-32.7c2.6-10.8,1.4-19.8-3.2-25.4c-3.8-4.6-9.7-6.7-17.6-6.3c-7.2,0.4-9.4-1.6-11.7-3.7
			c-2.5-2.2-5.3-4.8-15.7-4.7c0,0,0,0,0,0c-0.2,0-0.4-0.2-0.4-0.4c0-0.2,0.2-0.4,0.4-0.4c0.1,0,0.2,0,0.4,0
			c10.5,0,13.3,2.6,15.9,4.9c2.2,2,4.2,3.8,11,3.4c8.2-0.4,14.3,1.8,18.3,6.6c4.8,5.8,6,15.1,3.4,26.2c-2.9,12.3,5.1,22.3,12.9,32
			c6.6,8.2,12.8,15.9,11.2,24.2C329.2,204,329.1,204.2,328.9,204.2z"/>
		<path class="st3" d="M368.5,172l-2.3,4.4c-0.9,1.7-0.9,3.6,0,5.3l4,7.7c1.6,3.1,4.6,5.2,8,5.7l2.1,0.3c4.3-7.1,3.7-17.8,3.7-17.8
			l0.2-3.1c0.2-2.7-1.8-5-4.4-5.2l-6.1-0.4C371.6,168.8,369.5,170,368.5,172z"/>
		<g>
			<path class="st4" d="M318.3,201.5c-0.1-0.1,0.1,0.2,0.2,0.3l0.4,0.5l0.8,1.1c0.6,0.7,1.2,1.5,1.8,2.2c1.3,1.4,2.6,2.9,4.1,4.2
				c2.8,2.7,6,5.1,9.3,7.3c6.6,4.3,13.9,7.3,21.5,8.5l1.4,0.2l0.7,0.1c0.1,0-0.1,0-0.2,0c-0.4,0-0.9,0.2-1,0.4
				c-0.3,0.3,0.5-0.1,1.2-1.3c1.6-2.2,3.1-6,4.2-9.9c1.1-3.9,1.9-8.1,2.5-12.4c0.3-2.1,0.5-4.3,0.7-6.5c0.2-2.1,0.3-4.4,0.3-6.4
				l19.4,0.9c-0.2,2.6-0.5,4.9-0.8,7.4c-0.3,2.4-0.7,4.8-1,7.2c-0.7,4.8-1.6,9.6-2.8,14.6c-0.6,2.5-1.3,5-2.3,7.5
				c-1,2.6-2,5.2-3.7,8c-1.7,2.7-4,5.9-8.4,8.4c-2.2,1.2-4.9,2-7.6,2.1c-0.6,0-1.4,0-1.9,0l-1-0.1l-2-0.1c-5.3-0.5-10.5-1.5-15.6-3
				c-5.1-1.6-10-3.5-14.7-5.9c-4.7-2.4-9.1-5.2-13.4-8.2c-2.1-1.5-4.2-3.2-6.2-4.9c-1-0.9-2-1.8-3-2.7l-1.5-1.4l-0.8-0.8
				c-0.3-0.3-0.5-0.5-0.9-1L318.3,201.5z"/>
			<path class="st5" d="M318.3,201.5c-0.1-0.1,0.1,0.2,0.2,0.3l0.4,0.5l0.8,1.1c0.6,0.7,1.2,1.5,1.8,2.2c1.3,1.4,2.6,2.9,4.1,4.2
				c2.8,2.7,6,5.1,9.3,7.3c6.6,4.3,13.9,7.3,21.5,8.5l1.4,0.2l0.7,0.1c0.1,0-0.1,0-0.2,0c-0.4,0-0.9,0.2-1,0.4
				c-0.3,0.3,0.5-0.1,1.2-1.3c1.6-2.2,3.1-6,4.2-9.9c1.1-3.9,1.9-8.1,2.5-12.4c0.3-2.1,0.5-4.3,0.7-6.5c0.2-2.1,0.3-4.4,0.3-6.4
				l19.4,0.9c-0.2,2.6-0.5,4.9-0.8,7.4c-0.3,2.4-0.7,4.8-1,7.2c-0.7,4.8-1.6,9.6-2.8,14.6c-0.6,2.5-1.3,5-2.3,7.5
				c-1,2.6-2,5.2-3.7,8c-1.7,2.7-4,5.9-8.4,8.4c-2.2,1.2-4.9,2-7.6,2.1c-0.6,0-1.4,0-1.9,0l-1-0.1l-2-0.1c-5.3-0.5-10.5-1.5-15.6-3
				c-5.1-1.6-10-3.5-14.7-5.9c-4.7-2.4-9.1-5.2-13.4-8.2c-2.1-1.5-4.2-3.2-6.2-4.9c-1-0.9-2-1.8-3-2.7l-1.5-1.4l-0.8-0.8
				c-0.3-0.3-0.5-0.5-0.9-1L318.3,201.5z"/>
		</g>
		<path class="st3" d="M277.9,608.4c-2.5-5.5-0.8-28.6-0.4-32.4c-4.3-2.2-18.9,0.5-18.9,0.5s4.1,24.3,1.6,31.9
			C265.9,611.5,277.9,608.4,277.9,608.4z"/>
		<path class="st3" d="M458.7,586.2c-4.6-3.9-14.3-24.9-15.7-28.5c-4.8-0.1-15.7,8.4-15.7,8.4s14.3,20,15.5,27.9
			C449.2,594.3,458.7,586.2,458.7,586.2z"/>
		<path class="st4" d="M292.9,621.8c-12.3,0-14.4-0.2-21.3-0.4c-5.9-0.2-7.3,0.5-12.1,0.4c-4-0.1-3.8-3.9-2.6-8.3
			c0.4-1.6,1-3.4,1.7-5.6c0.5-1.7,2.1-2.9,3.8-2.9h13.5c1.2,0,2.4,0.6,3.2,1.6c3.3,4.1,10.3,7,16.5,7.8
			C302.2,615.4,297.8,621.8,292.9,621.8z"/>
		<path class="st4" d="M483,595.6c-13.2,6-20.2,2.9-26.9,4.5c-5.7,1.3-5.5,2.4-11.2,4c-3.8,1.1-5.7-3-5.4-6.5
			c0.2-2.3,0.5-4.9,0.4-7.7c0-1,0.5-2,1.5-2.4l13.2-6c0.9-0.4,1.9-0.3,2.6,0.3c5.2,4.2,16.8,9.5,24.9,6.8
			C488.3,586.5,487.4,593.6,483,595.6z"/>
		<path class="st1" d="M336.8,295.4c0,0,31.1,71.4,48.2,124c20.9,47.6,62.8,147.5,62.8,147.5c0.8,2.5-12.4,7.2-15.3,6.7
			c0,0-55.2-66.3-77.7-141.5c-58.5-73.4-75.7-132.3-75.7-132.3L336.8,295.4z"/>
		<path class="st6" d="M311.9,334.5c8.6,9.4,14.6,42.1,17.7,63.4c-12.1-17.8-21.6-34.2-28.9-48.2
			C301.6,341.7,305.1,335.9,311.9,334.5z"/>
		<path class="st1" d="M319.5,296.7c0,0,2.2,99.2-6.4,148C304,496.1,276,557.9,278,591.6c-2.9,1.7-13,1.8-18.7,0
			c0,0-9.7-100,19.4-148.8c-6.3-48.9-23.1-112.1-8.2-142.4L319.5,296.7z"/>
		<g>
			<path class="st1" d="M279.4,584.6c0.1,1.7,0.2,4.7,0.6,6.9c0.2,0.8-0.4,1.6-1.2,1.7c-6.8,1.1-16.8-0.5-19.9-1.1
				c-0.6-0.1-1.1-0.6-1.2-1.2l-1-6.5c-0.1-0.9,0.6-1.7,1.4-1.7l19.8,0.4C278.8,583.2,279.4,583.8,279.4,584.6z"/>
			<path class="st7" d="M279.4,584.6c0.1,1.7,0.2,4.7,0.6,6.9c0.2,0.8-0.4,1.6-1.2,1.7c-6.8,1.1-16.8-0.5-19.9-1.1
				c-0.6-0.1-1.1-0.6-1.2-1.2l-1-6.5c-0.1-0.9,0.6-1.7,1.4-1.7l19.8,0.4C278.8,583.2,279.4,583.8,279.4,584.6z"/>
		</g>
		<g>
			<path class="st1" d="M446.3,559.6c0.8,1.6,2.4,4.4,3.6,6.5c0.4,0.7,0.2,1.5-0.5,2c-5,3.1-14,6.2-16.9,7.2c-0.6,0.2-1.2,0-1.6-0.5
				l-4-5.3c-0.5-0.7-0.3-1.8,0.5-2.2l17.1-8.3C445.1,558.7,445.9,558.9,446.3,559.6z"/>
			<path class="st7" d="M446.3,559.6c0.8,1.6,2.4,4.4,3.6,6.5c0.4,0.7,0.2,1.5-0.5,2c-5,3.1-14,6.2-16.9,7.2c-0.6,0.2-1.2,0-1.6-0.5
				l-4-5.3c-0.5-0.7-0.3-1.8,0.5-2.2l17.1-8.3C445.1,558.7,445.9,558.9,446.3,559.6z"/>
		</g>
		<g>
			<path class="st4" d="M323.6,211.4c1.6,6.3,4.3,13.3,7.5,28.6c3,12.9,5.1,35.5,5.7,55.5c-8.6,7.7-37.4,6.4-66.3,5
				c-0.1-18.8-7.8-36.1-28.8-74.5c-4.9-8.9-0.9-19.4,8.5-22.6c2.5-0.8,5.2-1.7,7.9-2.5c10.7-3,19.6-5.4,29.4-6.7
				c3.3-0.4,6.7-0.8,9.9-1.1C309.4,192.1,320.7,200,323.6,211.4z"/>
			<path class="st5" d="M323.6,211.4c1.6,6.3,4.3,13.3,7.5,28.6c3,12.9,5.1,35.5,5.7,55.5c-8.6,7.7-37.4,6.4-66.3,5
				c-0.1-18.8-7.8-36.1-28.8-74.5c-4.9-8.9-0.9-19.4,8.5-22.6c2.5-0.8,5.2-1.7,7.9-2.5c10.7-3,19.6-5.4,29.4-6.7
				c3.3-0.4,6.7-0.8,9.9-1.1C309.4,192.1,320.7,200,323.6,211.4z"/>
		</g>
		<path class="st2" d="M289.5,194.1l-29.7,6.4c0,0,24.1,10,43.3,25.5C308.4,199.6,289.5,194.1,289.5,194.1z"/>
		<path class="st3" d="M252.7,167.3c4.7,8.9,11.8,25.5,7.1,33.2c0,0,26.8,7.8,41.1,20.1c1.9-19.9-11.4-26.4-11.4-26.4
			c-11.3-0.1-13.7-8.2-14.1-15.8L252.7,167.3z"/>
		<path class="st2" d="M277.9,203.1c-8.5,0-17.7-2-18.2-2.1c-0.2-0.1-0.4-0.3-0.3-0.5c0.1-0.2,0.3-0.4,0.5-0.3
			c0.2,0,16,3.5,25.3,1.4c2.9-0.7,4.7-1.8,5.1-3.2c0.6-2-1.3-4-1.3-4.1c-0.2-0.2-0.2-0.4,0-0.6c0.2-0.2,0.4-0.1,0.6,0
			c0.1,0.1,2.3,2.5,1.5,4.9c-0.5,1.8-2.5,3-5.7,3.8C283.1,202.9,280.6,203.1,277.9,203.1z"/>
		<path class="st4" d="M289.9,203.3L289.9,203.3c-0.7,0.5-1.7,0.4-2.3-0.3l-0.9-1.2c-0.5-0.7-0.4-1.7,0.3-2.3l0,0
			c0.7-0.5,1.7-0.4,2.3,0.3l0.9,1.2C290.8,201.7,290.6,202.8,289.9,203.3z"/>
		<path class="st6" d="M262,171.8l13.4,6.5c0.1,1.8,0.3,3.6,0.7,5.3c-4.2,0.3-11.1-2.8-12.8-6.8C262.5,174.8,261.9,172.8,262,171.8z
			"/>
		<path class="st3" d="M239.2,153.8c6.9,14.4,9.5,20.6,20.1,25.5c15.9,7.4,32.2-3.2,29.8-19.1c-2.2-14.3-13.2-35.4-30.1-36.2
			C242.3,123.2,232.2,139.4,239.2,153.8z"/>
		<path class="st1" d="M245.2,132.9c7.5,10.7,7.1,28.2-1.7,30.6c-13.5-2.1-16.4-5.6-16.4-5.6S231.5,124.9,245.2,132.9z"/>
		<path class="st1" d="M234.6,137.3c19.9,2.5,35.8-5.8,38.7-10.4C255.3,114.7,236.6,125,234.6,137.3z"/>
		<path class="st8" d="M276.2,145.5c0,0,4.4,4.6,7.8,6.3c-1,2.1-4,2.4-4,2.4L276.2,145.5z"/>
		<path class="st1" d="M275.2,160.8c0.7-0.1,1.4-0.3,2.1-0.5c0.2-0.1,0.3-0.3,0.2-0.5c-0.1-0.2-0.3-0.3-0.5-0.2
			c-5.4,1.9-9.5-1-9.6-1c-0.2-0.1-0.4-0.1-0.5,0.1c-0.1,0.2-0.1,0.4,0.1,0.5C267.2,159.2,270.5,161.5,275.2,160.8z"/>
		<path class="st3" d="M240,168.5c3.1,1.8,6.4,1.9,8.8,1.1c3.6-1.3,2.5-5.6-0.8-8.4c-3-2.5-8.5-4.8-11-2.1
			C234.7,161.9,236.5,166.5,240,168.5z"/>
		<path class="st2" d="M246.4,169.4c-2.7,0-4.9,2.2-4.9,4.9c0,2.7,2.2,4.9,4.9,4.9c2.7,0,4.9-2.2,4.9-4.9
			C251.3,171.6,249.1,169.4,246.4,169.4z M246.4,178.1c-2.1,0-3.8-1.7-3.8-3.8c0-2.1,1.7-3.8,3.8-3.8c2.1,0,3.8,1.7,3.8,3.8
			C250.2,176.4,248.5,178.1,246.4,178.1z"/>
		<path class="st1" d="M257.4,144.3c0.2-0.1,0.3-0.3,0.3-0.5c0.5-3.3,3.1-4.4,3.1-4.4c0.4-0.2,0.6-0.6,0.4-1
			c-0.2-0.4-0.7-0.6-1.1-0.4c-0.1,0.1-3.5,1.5-4,5.6c-0.1,0.4,0.3,0.8,0.7,0.9C257,144.5,257.2,144.4,257.4,144.3z"/>
		<path class="st1" d="M281.3,135.4c0.2,0,0.4-0.1,0.5-0.3c0.3-0.3,0.2-0.8-0.2-1.1c-3.5-2.7-6.9-1.7-7.1-1.6
			c-0.4,0.1-0.6,0.6-0.4,1c0.2,0.4,0.6,0.6,1,0.5c0.1,0,2.8-0.8,5.6,1.3C280.9,135.4,281.1,135.4,281.3,135.4z"/>
	</g>
	<path class="st1" d="M281,141.1c0.4,1.3,0.1,2.5-0.7,2.8c-0.8,0.3-1.8-0.5-2.3-1.8c-0.4-1.3-0.1-2.5,0.7-2.8
		C279.6,139.1,280.6,139.9,281,141.1z"/>
	<path class="st1" d="M266.4,147.1c0.4,1.3,0.1,2.5-0.7,2.8c-0.8,0.3-1.8-0.5-2.3-1.8c-0.4-1.3-0.1-2.5,0.7-2.8
		C265,145.1,266,145.9,266.4,147.1z"/>
	<path class="st1" d="M263.5,146.1l1.4-3C264.8,143.1,265.6,145.9,263.5,146.1z"/>
	<path class="st1" d="M278,140.2l1.4-3C279.3,137.3,280.1,140.1,278,140.2z"/>
	<path class="st9" d="M260.3,227.7l-14.6,5.5c6,11.1,10.8,20.4,14.4,28.4C258.6,243.9,260.3,227.7,260.3,227.7z"/>
	<g>
		
			<rect x="351.9" y="345" transform="matrix(-1 -1.224647e-16 1.224647e-16 -1 722.9815 966.8578)" class="st4" width="19.2" height="276.8"/>
		<polygon class="st6" points="351.9,345 371.1,345 371.1,391.6 351.9,386.6 		"/>
		<path class="st4" d="M292.9,379.5h171.4v-49.9c0-14.4-11.7-26.1-26.1-26.1H319c-14.4,0-26.1,11.7-26.1,26.1V379.5z"/>
		<path class="st3" d="M305.5,326.9l-2.8-4.1c-1.1-1.5-2.8-2.4-4.7-2.5l-8.7-0.1c-3.5,0-6.8,1.6-8.8,4.5l-1.3,1.7
			c4.3,7.1,14.1,11.6,14.1,11.6l2.7,1.6c2.4,1.4,5.3,0.8,6.7-1.5l3.2-5.2C306.9,331.1,306.8,328.7,305.5,326.9z"/>
		<g>
			<path class="st4" d="M265.8,223.6c-0.4,0.9-1,2.3-1.5,3.5l-1.5,3.7c-1,2.5-1.9,5-2.7,7.6c-1.7,5.1-3.1,10.3-4.1,15.4
				c-0.5,2.6-0.9,5.1-1.3,7.6c-0.3,2.5-0.4,5-0.4,7.3c0,4.7,0.7,9.1,2.1,12.1l0.6,1.4c0.1,0.1,0.1,0.2,0.1,0.3
				c0.7,2.7,2.5,6.1,4.9,9.3c2.4,3.2,5.2,6.4,8.3,9.5c3.1,3,6.4,6,9.8,8.8c1.7,1.4,3.5,2.8,5.3,4.1c1.8,1.3,3.7,2.7,5.3,3.8
				l-9.6,15.1c-2.3-1.4-4.2-2.7-6.3-4.1c-2-1.4-4-2.8-6-4.3c-4-2.9-7.9-6-11.7-9.3c-3.8-3.3-7.5-6.9-11-11c-1.8-2-3.4-4.3-5-6.7
				c-1.6-2.4-3.1-5.1-4.3-8.2l0.8,1.7c-4.1-7.2-5.5-14.6-6.1-21.3c-0.5-6.8-0.2-13.3,0.5-19.7c0.7-6.3,1.9-12.5,3.2-18.5
				c0.7-3,1.4-6,2.2-9c0.4-1.5,0.8-3,1.3-4.5c0.5-1.5,0.9-2.9,1.5-4.7L265.8,223.6z"/>
			<path class="st5" d="M265.8,223.6c-0.4,0.9-1,2.3-1.5,3.5l-1.5,3.7c-1,2.5-1.9,5-2.7,7.6c-1.7,5.1-3.1,10.3-4.1,15.4
				c-0.5,2.6-0.9,5.1-1.3,7.6c-0.3,2.5-0.4,5-0.4,7.3c0,4.7,0.7,9.1,2.1,12.1l0.6,1.4c0.1,0.1,0.1,0.2,0.1,0.3
				c0.7,2.7,2.5,6.1,4.9,9.3c2.4,3.2,5.2,6.4,8.3,9.5c3.1,3,6.4,6,9.8,8.8c1.7,1.4,3.5,2.8,5.3,4.1c1.8,1.3,3.7,2.7,5.3,3.8
				l-9.6,15.1c-2.3-1.4-4.2-2.7-6.3-4.1c-2-1.4-4-2.8-6-4.3c-4-2.9-7.9-6-11.7-9.3c-3.8-3.3-7.5-6.9-11-11c-1.8-2-3.4-4.3-5-6.7
				c-1.6-2.4-3.1-5.1-4.3-8.2l0.8,1.7c-4.1-7.2-5.5-14.6-6.1-21.3c-0.5-6.8-0.2-13.3,0.5-19.7c0.7-6.3,1.9-12.5,3.2-18.5
				c0.7-3,1.4-6,2.2-9c0.4-1.5,0.8-3,1.3-4.5c0.5-1.5,0.9-2.9,1.5-4.7L265.8,223.6z"/>
		</g>
		
			<rect x="292.9" y="348.8" transform="matrix(-1 -1.224647e-16 1.224647e-16 -1 669.0998 718.7872)" class="st7" width="83.4" height="21.2"/>
		<path class="st6" d="M376.2,379.5v-32.1c0-24.3,19.7-44,44-44c24.3,0,44,19.7,44,44v32.1"/>
		
			<rect x="376.2" y="379.5" transform="matrix(-1 -1.224647e-16 1.224647e-16 -1 872.842 764.6467)" class="st4" width="120.3" height="5.6"/>
		
			<rect x="408.6" y="379.5" transform="matrix(-1 -1.224647e-16 1.224647e-16 -1 905.2309 764.6467)" class="st6" width="88" height="5.6"/>
		
			<rect x="361.5" y="282.2" transform="matrix(-1 -1.224647e-16 1.224647e-16 -1 726.1016 638.657)" class="st10" width="3.1" height="74.3"/>
		<path class="st4" d="M343.8,296.6h21.8v-10.7c0-0.8-0.6-1.4-1.4-1.4h-20.4l3.6,6L343.8,296.6z"/>
	</g>
</g>
<g>
	<g>
		<g>
			<polygon class="st4" points="703.6,21.8 585.1,48.8 569.9,58.1 			"/>
			<polyline class="st6" points="585.1,48.8 569.9,58.1 703.6,21.8 			"/>
		</g>
		<polygon class="st4" points="703.6,21.8 585.1,48.8 596.2,57 		"/>
		<g>
			<g>
				<path class="st4" d="M644.6,45.2l-63.8-2.6c-1.8-0.1-3.2-1.6-3.1-3.4L579,7.9c0.1-1.8,1.6-3.2,3.4-3.1l63.8,2.6
					c1.8,0.1,3.2,1.6,3.1,3.4L648,42.1C647.9,43.9,646.4,45.3,644.6,45.2z"/>
				<path class="st11" d="M644.6,45.2l-63.8-2.6c-1.8-0.1-3.2-1.6-3.1-3.4L579,7.9c0.1-1.8,1.6-3.2,3.4-3.1l63.8,2.6
					c1.8,0.1,3.2,1.6,3.1,3.4L648,42.1C647.9,43.9,646.4,45.3,644.6,45.2z"/>
			</g>
			<path class="st12" d="M613.2,32.2c-0.2,0-0.3-0.1-0.5-0.1L582,10.9c-0.4-0.3-0.5-0.8-0.2-1.2c0.3-0.4,0.8-0.5,1.2-0.2l30.3,20.9
				L645.2,12c0.4-0.2,0.9-0.1,1.1,0.3c0.2,0.4,0.1,0.9-0.3,1.1l-32.4,18.6C613.5,32.2,613.4,32.2,613.2,32.2z"/>
			<path class="st12" d="M644.5,40.4c-0.2,0-0.3,0-0.5-0.2L626.4,28c-0.4-0.3-0.5-0.8-0.2-1.2c0.3-0.4,0.8-0.5,1.2-0.2L645,38.9
				c0.4,0.3,0.5,0.8,0.2,1.2C645,40.3,644.7,40.4,644.5,40.4z"/>
			<path class="st12" d="M581.4,37.8c-0.3,0-0.6-0.2-0.7-0.4c-0.2-0.4-0.1-0.9,0.3-1.2l18.6-10.8c0.4-0.2,0.9-0.1,1.2,0.3
				c0.2,0.4,0.1,0.9-0.3,1.2l-18.6,10.8C581.7,37.8,581.5,37.8,581.4,37.8z"/>
		</g>
		<polygon class="st4" points="703.6,21.8 602,42.5 596.2,57 		"/>
		<polygon class="st6" points="703.6,21.8 602,42.5 596.2,57 		"/>
		<polygon class="st4" points="703.6,21.8 602,42.5 634,54.1 		"/>
	</g>
	<g>
		<g>
			<path class="st4" d="M562.7,69.8c-0.4,0-0.7-0.3-0.8-0.6c-0.1-0.5,0.2-0.9,0.6-1c1.9-0.4,3.7-1,5.5-1.7c0.4-0.2,0.9,0,1.1,0.5
				c0.2,0.4,0,0.9-0.5,1.1c-1.8,0.7-3.8,1.3-5.7,1.8C562.9,69.8,562.8,69.8,562.7,69.8z"/>
			<path class="st4" d="M499.5,360.6c-0.4,0-0.8-0.4-0.8-0.8c0-0.5,0.3-0.9,0.8-0.9c3.9-0.2,7.9-0.5,11.8-1.1
				c0.5-0.1,0.9,0.3,0.9,0.7c0.1,0.5-0.3,0.9-0.7,0.9C507.5,360,503.5,360.4,499.5,360.6C499.5,360.6,499.5,360.6,499.5,360.6z
				 M523.1,357.5c-0.4,0-0.7-0.3-0.8-0.7c-0.1-0.5,0.2-0.9,0.6-1c4-0.9,7.8-1.9,11.4-3c0.4-0.1,0.9,0.1,1.1,0.5
				c0.1,0.4-0.1,0.9-0.5,1.1c-3.7,1.2-7.6,2.2-11.6,3.1C523.2,357.5,523.1,357.5,523.1,357.5z M545.7,350.2c-0.3,0-0.6-0.2-0.8-0.5
				c-0.2-0.4,0-0.9,0.4-1.1c3.1-1.4,5.8-2.9,8.2-4.5c0.7-0.4,1.3-0.9,2-1.3c0.4-0.3,0.9-0.2,1.2,0.2c0.3,0.4,0.2,0.9-0.2,1.2
				c-0.7,0.5-1.3,0.9-2,1.4c-2.5,1.6-5.3,3.2-8.5,4.6C546,350.2,545.9,350.2,545.7,350.2z M565.5,337.1c-0.2,0-0.5-0.1-0.6-0.3
				c-0.3-0.4-0.3-0.9,0.1-1.2c3.1-2.7,5.9-5.5,8.3-8.4c0.3-0.4,0.8-0.4,1.2-0.1c0.4,0.3,0.4,0.8,0.1,1.2c-2.4,2.9-5.3,5.8-8.5,8.6
				C565.9,337,565.7,337.1,565.5,337.1z M580.5,318.8c-0.1,0-0.3,0-0.4-0.1c-0.4-0.2-0.6-0.7-0.4-1.1c0.5-1.1,1-2.1,1.5-3.2
				c1-2.4,1.9-5,2.5-7.7c0.1-0.5,0.6-0.7,1-0.6c0.5,0.1,0.7,0.6,0.6,1c-0.7,2.8-1.6,5.5-2.6,8c-0.5,1.1-1,2.2-1.6,3.3
				C581.1,318.6,580.8,318.8,580.5,318.8z M586.4,295.8C586.3,295.8,586.3,295.8,586.4,295.8c-0.5,0-0.9-0.4-0.8-0.9
				c0.2-2.3,0.2-4.7,0.2-7.4c0-1.5,0-3-0.1-4.4c0-0.5,0.4-0.9,0.8-0.9c0.5,0,0.9,0.4,0.9,0.8c0,1.5,0.1,3,0.1,4.5
				c0,2.7-0.1,5.2-0.2,7.5C587.2,295.5,586.8,295.8,586.4,295.8z M586,272c-0.4,0-0.8-0.4-0.8-0.8c-0.2-3.4-0.3-7.1-0.3-10.8l0-1.2
				c0-0.5,0.3-0.9,0.8-0.8c0.5,0,0.8,0.4,0.8,0.8l0,1.2c0,3.6,0.1,7.3,0.3,10.7C586.9,271.6,586.5,272,586,272
				C586.1,272,586,272,586,272z M658,261.6c-1.5,0-3,0-4.5-0.1c-0.5,0-0.8-0.4-0.8-0.9c0-0.5,0.4-0.8,0.9-0.8
				c1.4,0.1,2.9,0.1,4.4,0.1c2.6,0,5.1-0.1,7.4-0.4c0.5-0.1,0.9,0.3,0.9,0.7c0.1,0.5-0.3,0.9-0.7,0.9
				C663.3,261.5,660.7,261.6,658,261.6z M641.7,260.8C641.7,260.8,641.6,260.8,641.7,260.8c-4-0.3-8-0.7-12-1.1
				c-0.5,0-0.8-0.5-0.8-0.9c0-0.5,0.5-0.8,0.9-0.8c3.9,0.4,7.9,0.8,11.8,1.1c0.5,0,0.8,0.4,0.8,0.9
				C642.5,260.4,642.1,260.8,641.7,260.8z M677,258.4c-0.3,0-0.6-0.2-0.8-0.5c-0.2-0.4,0-0.9,0.4-1.1c3.8-1.7,6.7-4.2,8.6-7.3
				c0.2-0.4,0.8-0.5,1.2-0.3c0.4,0.2,0.5,0.8,0.3,1.2c-2.1,3.4-5.2,6.1-9.3,7.9C677.2,258.3,677.1,258.4,677,258.4z M618,258.3
				c0,0-0.1,0-0.1,0c-3.9-0.5-7.9-1.1-11.8-1.7c-0.5-0.1-0.8-0.5-0.7-1c0.1-0.5,0.5-0.8,1-0.7c3.9,0.6,7.9,1.2,11.8,1.7
				c0.5,0.1,0.8,0.5,0.7,0.9C618.8,258,618.4,258.3,618,258.3z M594.4,254.7c0,0-0.1,0-0.2,0c-3.9-0.7-7.8-1.5-11.7-2.3
				c-0.5-0.1-0.7-0.5-0.7-1c0.1-0.5,0.5-0.7,1-0.7c3.9,0.8,7.8,1.6,11.7,2.3c0.5,0.1,0.8,0.5,0.7,1
				C595.2,254.4,594.8,254.7,594.4,254.7z M571.1,249.8c-0.1,0-0.1,0-0.2,0c-3.9-0.9-7.7-1.9-11.6-2.9c-0.4-0.1-0.7-0.6-0.6-1
				c0.1-0.4,0.6-0.7,1-0.6c3.8,1,7.7,2,11.5,2.9c0.5,0.1,0.7,0.6,0.6,1C571.8,249.5,571.5,249.8,571.1,249.8z M586.6,248.2
				c0,0-0.1,0-0.1,0c-0.5-0.1-0.8-0.5-0.7-1c0.6-4.2,1.6-8.1,2.9-11.7c0.2-0.4,0.6-0.7,1.1-0.5c0.4,0.2,0.7,0.6,0.5,1.1
				c-1.3,3.5-2.3,7.3-2.9,11.4C587.3,247.9,587,248.2,586.6,248.2z M548.1,243.7c-0.1,0-0.2,0-0.2,0c-3.8-1.1-7.6-2.3-11.4-3.5
				c-0.4-0.1-0.7-0.6-0.5-1.1c0.1-0.4,0.6-0.7,1.1-0.5c3.8,1.2,7.6,2.4,11.4,3.5c0.4,0.1,0.7,0.6,0.6,1
				C548.8,243.5,548.4,243.7,548.1,243.7z M688.3,239.4c-0.4,0-0.7-0.3-0.8-0.7c-0.6-3.3-2.6-6.4-6-9.4c-0.3-0.3-0.4-0.8-0.1-1.2
				c0.3-0.3,0.8-0.4,1.2-0.1c3.6,3.2,5.8,6.7,6.5,10.4c0.1,0.5-0.2,0.9-0.7,1C688.4,239.4,688.4,239.4,688.3,239.4z M525.4,236.4
				c-0.1,0-0.2,0-0.3,0c-3.8-1.4-7.6-2.8-11.2-4.2c-0.4-0.2-0.6-0.7-0.5-1.1c0.2-0.4,0.7-0.6,1.1-0.5c3.6,1.4,7.3,2.8,11.1,4.2
				c0.4,0.2,0.7,0.6,0.5,1.1C526.1,236.2,525.7,236.4,525.4,236.4z M503.2,227.6c-0.1,0-0.2,0-0.3-0.1c-3.7-1.7-7.3-3.4-10.8-5.1
				c-0.4-0.2-0.6-0.7-0.4-1.1c0.2-0.4,0.7-0.6,1.1-0.4c3.4,1.7,7,3.5,10.7,5.1c0.4,0.2,0.6,0.7,0.4,1.1
				C503.9,227.5,503.6,227.6,503.2,227.6z M595,226.2c-0.2,0-0.3-0.1-0.5-0.2c-0.4-0.3-0.5-0.8-0.2-1.2c2.3-3.1,5-5.7,8-7.7
				c0.3-0.2,0.6-0.4,0.9-0.6c0.4-0.2,0.9-0.1,1.2,0.3c0.2,0.4,0.1,0.9-0.3,1.2c-0.3,0.2-0.6,0.4-0.8,0.5c-2.9,1.9-5.4,4.4-7.6,7.3
				C595.5,226.1,595.3,226.2,595,226.2z M672.3,222.8c-0.1,0-0.3,0-0.4-0.1c-1.4-0.8-2.8-1.5-4.1-2.1c-2.1-1.1-4.3-2-6.6-2.9
				c-0.4-0.2-0.6-0.7-0.5-1.1c0.2-0.4,0.7-0.6,1.1-0.5c2.3,0.9,4.5,1.9,6.7,3c1.3,0.7,2.7,1.4,4.2,2.1c0.4,0.2,0.6,0.7,0.3,1.1
				C672.8,222.7,672.6,222.8,672.3,222.8z M482,216.8c-0.1,0-0.3,0-0.4-0.1c-3.5-2-6.9-4.2-10.2-6.3c-0.4-0.3-0.5-0.8-0.2-1.2
				c0.3-0.4,0.8-0.5,1.2-0.2c3.2,2.1,6.6,4.3,10.1,6.3c0.4,0.2,0.5,0.7,0.3,1.2C482.6,216.7,482.3,216.8,482,216.8z M650.1,214.2
				c-0.1,0-0.1,0-0.2,0c-3.8-0.9-7.7-1.5-11.6-1.9c-0.5,0-0.8-0.5-0.8-0.9c0-0.5,0.5-0.8,0.9-0.8c4,0.4,8,1,11.9,1.9
				c0.5,0.1,0.7,0.6,0.6,1C650.8,213.9,650.5,214.2,650.1,214.2z M614.7,213.6c-0.4,0-0.7-0.3-0.8-0.6c-0.1-0.5,0.2-0.9,0.6-1
				c2.8-0.7,5.7-1.1,9-1.4c1-0.1,2-0.2,3-0.2c0.5,0,0.9,0.3,0.9,0.8c0,0.5-0.3,0.9-0.8,0.9c-1,0.1-1.9,0.1-2.9,0.2
				c-3.2,0.3-6.1,0.7-8.7,1.4C614.8,213.6,614.7,213.6,614.7,213.6z M462.3,203.5c-0.2,0-0.4-0.1-0.5-0.2c-3.2-2.5-6.3-5.1-9.1-7.8
				c-0.3-0.3-0.4-0.8,0-1.2c0.3-0.3,0.9-0.4,1.2,0c2.8,2.6,5.8,5.2,9,7.7c0.4,0.3,0.4,0.8,0.1,1.2
				C462.8,203.4,462.5,203.5,462.3,203.5z M444.9,187.3c-0.2,0-0.5-0.1-0.6-0.3c-2.7-3-5.2-6.2-7.4-9.5c-0.3-0.4-0.2-0.9,0.2-1.2
				c0.4-0.3,0.9-0.2,1.2,0.2c2.2,3.2,4.7,6.3,7.3,9.3c0.3,0.3,0.3,0.9-0.1,1.2C445.3,187.2,445.1,187.3,444.9,187.3z M431.4,167.7
				c-0.3,0-0.6-0.2-0.7-0.5c-1.9-3.6-3.5-7.3-4.8-11c-0.2-0.4,0.1-0.9,0.5-1.1c0.4-0.2,0.9,0.1,1.1,0.5c1.3,3.6,2.8,7.3,4.7,10.8
				c0.2,0.4,0.1,0.9-0.4,1.1C431.7,167.7,431.5,167.7,431.4,167.7z M423.7,145.3c-0.4,0-0.8-0.3-0.8-0.7c-0.2-0.9-0.3-1.8-0.4-2.7
				c-0.4-2.9-0.6-5.9-0.6-9l0-0.3c0-0.5,0.4-0.9,0.8-0.8c0.5,0,0.8,0.4,0.8,0.8l0,0.3c0,2.9,0.2,5.9,0.6,8.7
				c0.1,0.9,0.3,1.8,0.4,2.6c0.1,0.5-0.2,0.9-0.7,1C423.8,145.3,423.7,145.3,423.7,145.3z M423.7,121.6c-0.1,0-0.1,0-0.2,0
				c-0.5-0.1-0.8-0.5-0.7-1c0.7-3.9,1.8-7.8,3.2-11.6c0.2-0.4,0.6-0.7,1.1-0.5c0.4,0.2,0.7,0.6,0.5,1.1c-1.4,3.7-2.4,7.5-3.1,11.3
				C424.5,121.3,424.1,121.6,423.7,121.6z M432,99.3c-0.1,0-0.3,0-0.4-0.1c-0.4-0.2-0.5-0.7-0.3-1.2c2-3.5,4.4-6.8,7-9.8
				c0.3-0.4,0.8-0.4,1.2-0.1c0.4,0.3,0.4,0.8,0.1,1.2c-2.5,2.9-4.8,6.2-6.8,9.6C432.5,99.2,432.3,99.3,432,99.3z M447.5,81.4
				c-0.3,0-0.5-0.1-0.7-0.3c-0.3-0.4-0.2-0.9,0.1-1.2c3.1-2.4,6.5-4.6,10.2-6.4c0.4-0.2,0.9,0,1.1,0.4c0.2,0.4,0,0.9-0.4,1.1
				c-3.6,1.8-6.9,3.9-9.9,6.3C447.8,81.3,447.6,81.4,447.5,81.4z M550.9,71C550.9,71,550.9,71,550.9,71c-3.6,0-7.4-0.4-12-1.1
				c-0.5-0.1-0.8-0.5-0.7-1c0.1-0.5,0.5-0.8,1-0.7c4.5,0.7,8.3,1,11.7,1c0.5,0,0.8,0.4,0.8,0.9C551.7,70.6,551.4,71,550.9,71z
				 M468.5,70.5c-0.4,0-0.7-0.2-0.8-0.6c-0.1-0.4,0.1-0.9,0.5-1.1c3.6-1.2,7.5-2.2,11.6-3c0.5-0.1,0.9,0.2,1,0.7
				c0.1,0.5-0.2,0.9-0.7,1c-4,0.8-7.9,1.8-11.4,3C468.7,70.5,468.6,70.5,468.5,70.5z M527.3,67.9c-0.1,0-0.1,0-0.2,0
				c-3.6-0.7-7.7-1.4-11.7-2c-0.5-0.1-0.8-0.5-0.7-1c0.1-0.5,0.5-0.8,1-0.7c4,0.6,8.2,1.3,11.8,2c0.5,0.1,0.8,0.5,0.7,1
				C528.1,67.6,527.7,67.9,527.3,67.9z M491.8,65.7c-0.4,0-0.8-0.3-0.8-0.7c-0.1-0.5,0.3-0.9,0.7-0.9c2.1-0.2,4.4-0.5,6.8-0.7
				c1.5-0.1,3.1-0.2,4.7-0.2l0.6,0c0.5,0,0.8,0.4,0.8,0.8c0,0.5-0.4,0.8-0.8,0.8l-0.5,0c-1.5,0-3.1,0.1-4.5,0.2
				C496.3,65.2,494,65.5,491.8,65.7C491.9,65.7,491.9,65.7,491.8,65.7z"/>
			<path class="st4" d="M487.4,360.6C487.4,360.6,487.4,360.6,487.4,360.6c-2-0.1-4-0.2-6-0.4c-0.5,0-0.8-0.5-0.8-0.9
				c0-0.5,0.5-0.8,0.9-0.8c1.9,0.2,3.9,0.3,5.8,0.4c0.5,0,0.8,0.4,0.8,0.9C488.2,360.3,487.8,360.6,487.4,360.6z"/>
		</g>
		<g class="st13">
			<path class="st2" d="M562.7,69.8c-0.4,0-0.7-0.3-0.8-0.6c-0.1-0.5,0.2-0.9,0.6-1c1.9-0.4,3.7-1,5.5-1.7c0.4-0.2,0.9,0,1.1,0.5
				c0.2,0.4,0,0.9-0.5,1.1c-1.8,0.7-3.8,1.3-5.7,1.8C562.9,69.8,562.8,69.8,562.7,69.8z"/>
			<path class="st2" d="M499.5,360.6c-0.4,0-0.8-0.4-0.8-0.8c0-0.5,0.3-0.9,0.8-0.9c3.9-0.2,7.9-0.5,11.8-1.1
				c0.5-0.1,0.9,0.3,0.9,0.7c0.1,0.5-0.3,0.9-0.7,0.9C507.5,360,503.5,360.4,499.5,360.6C499.5,360.6,499.5,360.6,499.5,360.6z
				 M523.1,357.5c-0.4,0-0.7-0.3-0.8-0.7c-0.1-0.5,0.2-0.9,0.6-1c4-0.9,7.8-1.9,11.4-3c0.4-0.1,0.9,0.1,1.1,0.5
				c0.1,0.4-0.1,0.9-0.5,1.1c-3.7,1.2-7.6,2.2-11.6,3.1C523.2,357.5,523.1,357.5,523.1,357.5z M545.7,350.2c-0.3,0-0.6-0.2-0.8-0.5
				c-0.2-0.4,0-0.9,0.4-1.1c3.1-1.4,5.8-2.9,8.2-4.5c0.7-0.4,1.3-0.9,2-1.3c0.4-0.3,0.9-0.2,1.2,0.2c0.3,0.4,0.2,0.9-0.2,1.2
				c-0.7,0.5-1.3,0.9-2,1.4c-2.5,1.6-5.3,3.2-8.5,4.6C546,350.2,545.9,350.2,545.7,350.2z M565.5,337.1c-0.2,0-0.5-0.1-0.6-0.3
				c-0.3-0.4-0.3-0.9,0.1-1.2c3.1-2.7,5.9-5.5,8.3-8.4c0.3-0.4,0.8-0.4,1.2-0.1c0.4,0.3,0.4,0.8,0.1,1.2c-2.4,2.9-5.3,5.8-8.5,8.6
				C565.9,337,565.7,337.1,565.5,337.1z M580.5,318.8c-0.1,0-0.3,0-0.4-0.1c-0.4-0.2-0.6-0.7-0.4-1.1c0.5-1.1,1-2.1,1.5-3.2
				c1-2.4,1.9-5,2.5-7.7c0.1-0.5,0.6-0.7,1-0.6c0.5,0.1,0.7,0.6,0.6,1c-0.7,2.8-1.6,5.5-2.6,8c-0.5,1.1-1,2.2-1.6,3.3
				C581.1,318.6,580.8,318.8,580.5,318.8z M586.4,295.8C586.3,295.8,586.3,295.8,586.4,295.8c-0.5,0-0.9-0.4-0.8-0.9
				c0.2-2.3,0.2-4.7,0.2-7.4c0-1.5,0-3-0.1-4.4c0-0.5,0.4-0.9,0.8-0.9c0.5,0,0.9,0.4,0.9,0.8c0,1.5,0.1,3,0.1,4.5
				c0,2.7-0.1,5.2-0.2,7.5C587.2,295.5,586.8,295.8,586.4,295.8z M586,272c-0.4,0-0.8-0.4-0.8-0.8c-0.2-3.4-0.3-7.1-0.3-10.8l0-1.2
				c0-0.5,0.3-0.9,0.8-0.8c0.5,0,0.8,0.4,0.8,0.8l0,1.2c0,3.6,0.1,7.3,0.3,10.7C586.9,271.6,586.5,272,586,272
				C586.1,272,586,272,586,272z M658,261.6c-1.5,0-3,0-4.5-0.1c-0.5,0-0.8-0.4-0.8-0.9c0-0.5,0.4-0.8,0.9-0.8
				c1.4,0.1,2.9,0.1,4.4,0.1c2.6,0,5.1-0.1,7.4-0.4c0.5-0.1,0.9,0.3,0.9,0.7c0.1,0.5-0.3,0.9-0.7,0.9
				C663.3,261.5,660.7,261.6,658,261.6z M641.7,260.8C641.7,260.8,641.6,260.8,641.7,260.8c-4-0.3-8-0.7-12-1.1
				c-0.5,0-0.8-0.5-0.8-0.9c0-0.5,0.5-0.8,0.9-0.8c3.9,0.4,7.9,0.8,11.8,1.1c0.5,0,0.8,0.4,0.8,0.9
				C642.5,260.4,642.1,260.8,641.7,260.8z M677,258.4c-0.3,0-0.6-0.2-0.8-0.5c-0.2-0.4,0-0.9,0.4-1.1c3.8-1.7,6.7-4.2,8.6-7.3
				c0.2-0.4,0.8-0.5,1.2-0.3c0.4,0.2,0.5,0.8,0.3,1.2c-2.1,3.4-5.2,6.1-9.3,7.9C677.2,258.3,677.1,258.4,677,258.4z M618,258.3
				c0,0-0.1,0-0.1,0c-3.9-0.5-7.9-1.1-11.8-1.7c-0.5-0.1-0.8-0.5-0.7-1c0.1-0.5,0.5-0.8,1-0.7c3.9,0.6,7.9,1.2,11.8,1.7
				c0.5,0.1,0.8,0.5,0.7,0.9C618.8,258,618.4,258.3,618,258.3z M594.4,254.7c0,0-0.1,0-0.2,0c-3.9-0.7-7.8-1.5-11.7-2.3
				c-0.5-0.1-0.7-0.5-0.7-1c0.1-0.5,0.5-0.7,1-0.7c3.9,0.8,7.8,1.6,11.7,2.3c0.5,0.1,0.8,0.5,0.7,1
				C595.2,254.4,594.8,254.7,594.4,254.7z M571.1,249.8c-0.1,0-0.1,0-0.2,0c-3.9-0.9-7.7-1.9-11.6-2.9c-0.4-0.1-0.7-0.6-0.6-1
				c0.1-0.4,0.6-0.7,1-0.6c3.8,1,7.7,2,11.5,2.9c0.5,0.1,0.7,0.6,0.6,1C571.8,249.5,571.5,249.8,571.1,249.8z M586.6,248.2
				c0,0-0.1,0-0.1,0c-0.5-0.1-0.8-0.5-0.7-1c0.6-4.2,1.6-8.1,2.9-11.7c0.2-0.4,0.6-0.7,1.1-0.5c0.4,0.2,0.7,0.6,0.5,1.1
				c-1.3,3.5-2.3,7.3-2.9,11.4C587.3,247.9,587,248.2,586.6,248.2z M548.1,243.7c-0.1,0-0.2,0-0.2,0c-3.8-1.1-7.6-2.3-11.4-3.5
				c-0.4-0.1-0.7-0.6-0.5-1.1c0.1-0.4,0.6-0.7,1.1-0.5c3.8,1.2,7.6,2.4,11.4,3.5c0.4,0.1,0.7,0.6,0.6,1
				C548.8,243.5,548.4,243.7,548.1,243.7z M688.3,239.4c-0.4,0-0.7-0.3-0.8-0.7c-0.6-3.3-2.6-6.4-6-9.4c-0.3-0.3-0.4-0.8-0.1-1.2
				c0.3-0.3,0.8-0.4,1.2-0.1c3.6,3.2,5.8,6.7,6.5,10.4c0.1,0.5-0.2,0.9-0.7,1C688.4,239.4,688.4,239.4,688.3,239.4z M525.4,236.4
				c-0.1,0-0.2,0-0.3,0c-3.8-1.4-7.6-2.8-11.2-4.2c-0.4-0.2-0.6-0.7-0.5-1.1c0.2-0.4,0.7-0.6,1.1-0.5c3.6,1.4,7.3,2.8,11.1,4.2
				c0.4,0.2,0.7,0.6,0.5,1.1C526.1,236.2,525.7,236.4,525.4,236.4z M503.2,227.6c-0.1,0-0.2,0-0.3-0.1c-3.7-1.7-7.3-3.4-10.8-5.1
				c-0.4-0.2-0.6-0.7-0.4-1.1c0.2-0.4,0.7-0.6,1.1-0.4c3.4,1.7,7,3.5,10.7,5.1c0.4,0.2,0.6,0.7,0.4,1.1
				C503.9,227.5,503.6,227.6,503.2,227.6z M595,226.2c-0.2,0-0.3-0.1-0.5-0.2c-0.4-0.3-0.5-0.8-0.2-1.2c2.3-3.1,5-5.7,8-7.7
				c0.3-0.2,0.6-0.4,0.9-0.6c0.4-0.2,0.9-0.1,1.2,0.3c0.2,0.4,0.1,0.9-0.3,1.2c-0.3,0.2-0.6,0.4-0.8,0.5c-2.9,1.9-5.4,4.4-7.6,7.3
				C595.5,226.1,595.3,226.2,595,226.2z M672.3,222.8c-0.1,0-0.3,0-0.4-0.1c-1.4-0.8-2.8-1.5-4.1-2.1c-2.1-1.1-4.3-2-6.6-2.9
				c-0.4-0.2-0.6-0.7-0.5-1.1c0.2-0.4,0.7-0.6,1.1-0.5c2.3,0.9,4.5,1.9,6.7,3c1.3,0.7,2.7,1.4,4.2,2.1c0.4,0.2,0.6,0.7,0.3,1.1
				C672.8,222.7,672.6,222.8,672.3,222.8z M482,216.8c-0.1,0-0.3,0-0.4-0.1c-3.5-2-6.9-4.2-10.2-6.3c-0.4-0.3-0.5-0.8-0.2-1.2
				c0.3-0.4,0.8-0.5,1.2-0.2c3.2,2.1,6.6,4.3,10.1,6.3c0.4,0.2,0.5,0.7,0.3,1.2C482.6,216.7,482.3,216.8,482,216.8z M650.1,214.2
				c-0.1,0-0.1,0-0.2,0c-3.8-0.9-7.7-1.5-11.6-1.9c-0.5,0-0.8-0.5-0.8-0.9c0-0.5,0.5-0.8,0.9-0.8c4,0.4,8,1,11.9,1.9
				c0.5,0.1,0.7,0.6,0.6,1C650.8,213.9,650.5,214.2,650.1,214.2z M614.7,213.6c-0.4,0-0.7-0.3-0.8-0.6c-0.1-0.5,0.2-0.9,0.6-1
				c2.8-0.7,5.7-1.1,9-1.4c1-0.1,2-0.2,3-0.2c0.5,0,0.9,0.3,0.9,0.8c0,0.5-0.3,0.9-0.8,0.9c-1,0.1-1.9,0.1-2.9,0.2
				c-3.2,0.3-6.1,0.7-8.7,1.4C614.8,213.6,614.7,213.6,614.7,213.6z M462.3,203.5c-0.2,0-0.4-0.1-0.5-0.2c-3.2-2.5-6.3-5.1-9.1-7.8
				c-0.3-0.3-0.4-0.8,0-1.2c0.3-0.3,0.9-0.4,1.2,0c2.8,2.6,5.8,5.2,9,7.7c0.4,0.3,0.4,0.8,0.1,1.2
				C462.8,203.4,462.5,203.5,462.3,203.5z M444.9,187.3c-0.2,0-0.5-0.1-0.6-0.3c-2.7-3-5.2-6.2-7.4-9.5c-0.3-0.4-0.2-0.9,0.2-1.2
				c0.4-0.3,0.9-0.2,1.2,0.2c2.2,3.2,4.7,6.3,7.3,9.3c0.3,0.3,0.3,0.9-0.1,1.2C445.3,187.2,445.1,187.3,444.9,187.3z M431.4,167.7
				c-0.3,0-0.6-0.2-0.7-0.5c-1.9-3.6-3.5-7.3-4.8-11c-0.2-0.4,0.1-0.9,0.5-1.1c0.4-0.2,0.9,0.1,1.1,0.5c1.3,3.6,2.8,7.3,4.7,10.8
				c0.2,0.4,0.1,0.9-0.4,1.1C431.7,167.7,431.5,167.7,431.4,167.7z M423.7,145.3c-0.4,0-0.8-0.3-0.8-0.7c-0.2-0.9-0.3-1.8-0.4-2.7
				c-0.4-2.9-0.6-5.9-0.6-9l0-0.3c0-0.5,0.4-0.9,0.8-0.8c0.5,0,0.8,0.4,0.8,0.8l0,0.3c0,2.9,0.2,5.9,0.6,8.7
				c0.1,0.9,0.3,1.8,0.4,2.6c0.1,0.5-0.2,0.9-0.7,1C423.8,145.3,423.7,145.3,423.7,145.3z M423.7,121.6c-0.1,0-0.1,0-0.2,0
				c-0.5-0.1-0.8-0.5-0.7-1c0.7-3.9,1.8-7.8,3.2-11.6c0.2-0.4,0.6-0.7,1.1-0.5c0.4,0.2,0.7,0.6,0.5,1.1c-1.4,3.7-2.4,7.5-3.1,11.3
				C424.5,121.3,424.1,121.6,423.7,121.6z M432,99.3c-0.1,0-0.3,0-0.4-0.1c-0.4-0.2-0.5-0.7-0.3-1.2c2-3.5,4.4-6.8,7-9.8
				c0.3-0.4,0.8-0.4,1.2-0.1c0.4,0.3,0.4,0.8,0.1,1.2c-2.5,2.9-4.8,6.2-6.8,9.6C432.5,99.2,432.3,99.3,432,99.3z M447.5,81.4
				c-0.3,0-0.5-0.1-0.7-0.3c-0.3-0.4-0.2-0.9,0.1-1.2c3.1-2.4,6.5-4.6,10.2-6.4c0.4-0.2,0.9,0,1.1,0.4c0.2,0.4,0,0.9-0.4,1.1
				c-3.6,1.8-6.9,3.9-9.9,6.3C447.8,81.3,447.6,81.4,447.5,81.4z M550.9,71C550.9,71,550.9,71,550.9,71c-3.6,0-7.4-0.4-12-1.1
				c-0.5-0.1-0.8-0.5-0.7-1c0.1-0.5,0.5-0.8,1-0.7c4.5,0.7,8.3,1,11.7,1c0.5,0,0.8,0.4,0.8,0.9C551.7,70.6,551.4,71,550.9,71z
				 M468.5,70.5c-0.4,0-0.7-0.2-0.8-0.6c-0.1-0.4,0.1-0.9,0.5-1.1c3.6-1.2,7.5-2.2,11.6-3c0.5-0.1,0.9,0.2,1,0.7
				c0.1,0.5-0.2,0.9-0.7,1c-4,0.8-7.9,1.8-11.4,3C468.7,70.5,468.6,70.5,468.5,70.5z M527.3,67.9c-0.1,0-0.1,0-0.2,0
				c-3.6-0.7-7.7-1.4-11.7-2c-0.5-0.1-0.8-0.5-0.7-1c0.1-0.5,0.5-0.8,1-0.7c4,0.6,8.2,1.3,11.8,2c0.5,0.1,0.8,0.5,0.7,1
				C528.1,67.6,527.7,67.9,527.3,67.9z M491.8,65.7c-0.4,0-0.8-0.3-0.8-0.7c-0.1-0.5,0.3-0.9,0.7-0.9c2.1-0.2,4.4-0.5,6.8-0.7
				c1.5-0.1,3.1-0.2,4.7-0.2l0.6,0c0.5,0,0.8,0.4,0.8,0.8c0,0.5-0.4,0.8-0.8,0.8l-0.5,0c-1.5,0-3.1,0.1-4.5,0.2
				C496.3,65.2,494,65.5,491.8,65.7C491.9,65.7,491.9,65.7,491.8,65.7z"/>
			<path class="st2" d="M487.4,360.6C487.4,360.6,487.4,360.6,487.4,360.6c-2-0.1-4-0.2-6-0.4c-0.5,0-0.8-0.5-0.8-0.9
				c0-0.5,0.5-0.8,0.9-0.8c1.9,0.2,3.9,0.3,5.8,0.4c0.5,0,0.8,0.4,0.8,0.9C488.2,360.3,487.8,360.6,487.4,360.6z"/>
		</g>
	</g>
</g>
</svg>
