<?xml version="1.0" encoding="utf-8"?>
<!-- Generator: Adobe Illustrator 24.3.0, SVG Export Plug-In . SVG Version: 6.00 Build 0)  -->
<svg version="1.1" id="a9bf0661-4ff9-474e-842c-2ecc0dde3355"
	 xmlns="http://www.w3.org/2000/svg" xmlns:xlink="http://www.w3.org/1999/xlink" x="0px" y="0px" viewBox="0 0 864 645"
	 style="enable-background:new 0 0 864 645;" xml:space="preserve">
<style type="text/css">
	.st0{fill:#ECECEC;}
	.st1{fill:#F5F5F5;}
	.st2{fill:#E7E7E7;}
	.st3{fill:#FAFAFA;}
	.st4{fill:#E1E1E1;}
	.st5{fill:#F0F0F0;}
	.st6{opacity:0.2;}
	.st7{fill:#1A2E35;}
	.st8{fill:#007CFF;}
	.st9{opacity:0.6;enable-background:new    ;}
	.st10{fill:#FFFFFF;}
	.st11{opacity:0.3;}
	.st12{opacity:0.7;fill:#FFFFFF;}
	.st13{fill:#F5BFBF;}
	.st14{opacity:0.3;fill:#FFFFFF;}
	.st15{opacity:0.2;enable-background:new    ;}
	.st16{fill:#FF847F;}
	.st17{opacity:0.1;fill:#FFFFFF;}
	.st18{opacity:0.1;fill:#007CFF;}
	.st19{opacity:0.1;}
	.st20{fill:none;stroke:#007CFF;stroke-width:1.3;stroke-miterlimit:10;}
</style>
<rect x="718.9" y="595.6" class="st0" width="57.4" height="0.4"/>
<rect x="555.5" y="600.3" class="st0" width="15.1" height="0.4"/>
<rect x="683.9" y="579.5" class="st0" width="33.3" height="0.4"/>
<rect x="87.4" y="582.4" class="st0" width="74.9" height="0.4"/>
<rect x="177.7" y="582.4" class="st0" width="11" height="0.4"/>
<rect x="224.3" y="589.7" class="st0" width="162.4" height="0.4"/>
<g>
	<path class="st0" d="M409.7,490.3H74.9c-5.5,0-9.9-4.4-9.9-9.9V9.9C65,4.4,69.5,0,74.9,0h334.8c5.5,0,9.9,4.4,9.9,9.9v470.5
		C419.6,485.9,415.2,490.3,409.7,490.3z M74.9,0.4c-5.2,0-9.5,4.2-9.5,9.5v470.5c0,5.2,4.2,9.5,9.5,9.5h334.8c5.2,0,9.5-4.2,9.5-9.5
		V9.9c0-5.2-4.2-9.5-9.5-9.5H74.9z"/>
	<path class="st0" d="M784.7,490.3H449.9c-5.5,0-9.9-4.4-9.9-9.9V9.9c0-5.5,4.4-9.9,9.9-9.9h334.8c5.5,0,9.9,4.4,9.9,9.9v470.5
		C794.6,485.9,790.1,490.3,784.7,490.3z M449.9,0.4c-5.2,0-9.5,4.2-9.5,9.5v470.5c0,5.2,4.2,9.5,9.5,9.5h334.8
		c5.2,0,9.5-4.2,9.5-9.5V9.9c0-5.2-4.2-9.5-9.5-9.5H449.9z"/>
</g>
<rect x="-3.6" y="567.7" class="st0" width="866.8" height="0.4"/>
<g>
	<g>
		<g>
			<g>
				<g>
					
						<rect x="603.3" y="338" transform="matrix(-1 -1.224647e-16 1.224647e-16 -1 1371.5735 895.6258)" class="st1" width="165" height="219.5"/>
					
						<rect x="571.8" y="338" transform="matrix(-1 -1.224647e-16 1.224647e-16 -1 1175.1017 895.6258)" class="st2" width="31.5" height="219.5"/>
					
						<rect x="614" y="354.3" transform="matrix(-1 -1.224647e-16 1.224647e-16 -1 1370.7249 761.9751)" class="st3" width="142.7" height="53.3"/>
					<path class="st0" d="M704,354.3l-0.6,7.1c-0.2,2.3-2.2,4.1-4.5,4.1h-26.9c-2.4,0-4.3-1.8-4.5-4.1l-0.6-7.1H704z"/>
					
						<rect x="614" y="413.5" transform="matrix(-1 -1.224647e-16 1.224647e-16 -1 1370.7249 880.2556)" class="st3" width="142.7" height="53.3"/>
					<path class="st0" d="M704,413.5l-0.6,7.1c-0.2,2.3-2.2,4.1-4.5,4.1h-26.9c-2.4,0-4.3-1.8-4.5-4.1l-0.6-7.1H704z"/>
					
						<rect x="614" y="472.6" transform="matrix(-1 -1.224647e-16 1.224647e-16 -1 1370.7249 998.536)" class="st3" width="142.7" height="53.3"/>
					<path class="st0" d="M704,472.6l-0.6,7.1c-0.2,2.3-2.2,4.1-4.5,4.1h-26.9c-2.4,0-4.3-1.8-4.5-4.1l-0.6-7.1H704z"/>
					<polygon class="st2" points="614,568.5 755,568.5 756.7,557.6 614,557.6 					"/>
					<polygon class="st4" points="584.5,568.5 614,568.5 614,557.6 582.8,557.6 					"/>
				</g>
				<g>
					<polygon class="st3" points="680.3,338.3 736.6,338.3 730.4,266.8 674,266.8 					"/>
					<polygon class="st0" points="680.3,338.3 677.6,338.3 671.3,266.8 674,266.8 					"/>
					<polygon class="st5" points="685.4,331 730.2,331 725.3,274.1 680.4,274.1 					"/>
					<polygon class="st2" points="688.7,326.3 726.1,326.3 722,278.8 684.5,278.8 					"/>
				</g>
				<g>
					<polygon class="st5" points="664.4,338.3 668.3,294 612.2,294 608.4,338.3 					"/>
					<polygon class="st4" points="664.4,338.3 668.3,294 671.3,294 667.5,338.3 					"/>
					<polygon class="st0" points="659.1,333.8 662.2,298.6 617.5,298.6 614.5,333.8 					"/>
					<polygon class="st1" points="655.7,330.9 658.3,301.5 621,301.5 618.4,330.9 					"/>
				</g>
			</g>
		</g>
		<g>
			<path class="st0" d="M534.9,538.8c0,11.7-1.8,19.3-4.9,24.2c-2.3,3.7-6.5,5.7-10.8,5.7h-17c-4.3,0-8.5-2.1-10.8-5.7
				c-3.1-4.9-4.9-12.4-4.9-24.2c0-17,7.4-30.6,9.8-41.5c0.9-3.9-2-15.9-2-15.9h32.9c0,0-2.9,12-2,15.9
				C527.5,508.2,534.9,521.8,534.9,538.8z"/>
			<path class="st1" d="M591,470c0-14.8-23.1-8.6-29-31.5c-2.2-8.7,16.6-28.3,16.6-28.3H520c0,0,18.8,19.6,16.6,28.3
				c-5.8,22.9-29,16.8-29,31.5c0,16.3,32.6,50.1,34.2,88.2c0.1,3.4-6.1,10.5-6.1,10.5H563c0,0-6.3-7.1-6.1-10.5
				C558.4,520.1,591,486.3,591,470z"/>
			<path class="st5" d="M573.3,508.4c3.4-7.2-3.6-31.6-3.6-31.6h25.4c0,0-7.1,24.4-3.6,31.6c2.4,5.1,7.9,8.3,7.9,14.3v36
				c0,9.3-7.6,10-17,10c-9.3,0-17-0.7-17-10v-36C565.4,516.7,570.9,513.4,573.3,508.4z"/>
		</g>
		<g>
			<g>
				<path class="st2" d="M282.7,295.7c-14.6-6.3-22.9-19.7-18.6-29.8c4.4-10.1,19.8-13.1,34.4-6.8c14.6,6.3,22.9,19.7,18.6,29.8
					C312.8,299,297.3,302,282.7,295.7z M294.3,268.9c-6.8-3-14.1-1.5-16.1,3.2c-2,4.7,1.9,11,8.7,13.9c6.8,3,14.1,1.5,16.1-3.2
					C305.1,278.1,301.2,271.8,294.3,268.9z"/>
			</g>
			<g>
				<g>
					<path class="st2" d="M299.9,269.4l-6.9-3l41.9-97c0.8-1.9,3.1-2.8,5-2l0,0c1.9,0.8,2.8,3.1,2,5L299.9,269.4z"/>
				</g>
				<g>
					<g>
						<polygon class="st2" points="345.1,181.8 331.7,176 334.7,169.1 348.1,174.9 						"/>
					</g>
					<g>
						<polygon class="st2" points="338.5,189.6 329,185.4 332,178.5 341.5,182.6 						"/>
					</g>
					<g>
						
							<rect x="328.2" y="191.7" transform="matrix(0.3974 -0.9177 0.9177 0.3974 18.7622 423.6548)" class="st2" width="7.6" height="11.7"/>
					</g>
					<g>
						<path class="st2" d="M302.6,259.1l-3.8-1.7c-1.9-0.8-2.8-3-2-4.9l0-0.1c0.8-1.9,3-2.8,4.9-2l3.8,1.7c1.9,0.8,2.8,3,2,4.9
							l0,0.1C306.7,259,304.5,259.9,302.6,259.1z"/>
					</g>
				</g>
			</g>
		</g>
		<g>
			<g>
				<path class="st2" d="M600.5,225.7c11.6,7.7,14.6,23.6,6.7,35.5c-7.9,11.9-23.8,15.2-35.3,7.5c-11.6-7.7-14.6-23.6-6.7-35.5
					C573.1,221.4,588.9,218,600.5,225.7z M579.5,257.3c5.4,3.6,12.8,2,16.6-3.5c3.7-5.6,2.3-13-3.1-16.6c-5.4-3.6-12.9-2-16.6,3.5
					C572.6,246.2,574,253.7,579.5,257.3z"/>
			</g>
			<g>
				<g>
					<path class="st2" d="M576.7,254.2l7.2,4.8l-51.3,78.6c-1.3,2-4,2.5-6,1.2h0c-2-1.3-2.5-4-1.2-6L576.7,254.2z"/>
				</g>
				<g>
					<g>
						<path class="st2" d="M525.6,315.7l15.1,10.1l-7.5,11.3L518.1,327c-2.2-1.5-2.8-4.4-1.3-6.6l2.3-3.4
							C520.5,314.8,523.4,314.2,525.6,315.7z"/>
					</g>
				</g>
			</g>
		</g>
		<g>
			<g>
				<g>
					<g>
						<path class="st5" d="M390.9,75.6l-8,20.6c-0.7,1.9-2.8,2.8-4.7,2.1c-1.9-0.7-2.8-2.8-2.1-4.7l8-20.6
							c2.6-6.7-0.8-14.2-7.4-16.8l-7.4-2.9c-6.7-2.6-14.2,0.8-16.8,7.4l-3.3,8.4l-6.7-2.6l3.3-8.4c4-10.4,15.7-15.6,26.1-11.6
							l7.4,2.9C389.7,53.5,394.9,65.2,390.9,75.6z"/>
					</g>
					<g>
						<g>
							<path class="st2" d="M389.6,78.8c-0.5-0.7-1.3-1.2-2.1-1.6l-40.2-15.5c-0.9-0.3-1.8-0.4-2.7-0.2c-1.6,0.3-3,1.4-3.7,3.1
								l-15.5,40.2c-1,2.5,0.3,5.4,2.8,6.4l40.2,15.5c2.5,1,5.4-0.3,6.4-2.8l15.5-40.2C391,82,390.6,80.2,389.6,78.8z M359.1,109.9
								l-12.8-4.9l6.7-11.8c-0.8-1.7-1-3.8-0.3-5.7c1.4-3.6,5.5-5.5,9.1-4.1c3.6,1.4,5.5,5.5,4.1,9.2c-0.7,1.9-2.2,3.3-4,4
								L359.1,109.9z"/>
						</g>
					</g>
				</g>
			</g>
		</g>
	</g>
	<g>
		
			<rect x="116.3" y="372.5" transform="matrix(-1 -1.224647e-16 1.224647e-16 -1 553.535 917.7119)" class="st2" width="320.9" height="172.7"/>
		
			<rect x="411.5" y="552.4" transform="matrix(-1 -1.224647e-16 1.224647e-16 -1 843.1824 1120.014)" class="st2" width="20.2" height="15.2"/>
		
			<rect x="91.8" y="359.6" transform="matrix(-1 -1.224647e-16 1.224647e-16 -1 203.7716 927.2743)" class="st2" width="20.2" height="208"/>
		<path class="st5" d="M111.7,359.6v208h10.8V556h309.2v11.7h10.8v-208h-5.4h-5.4H122.5h-5.4H111.7z M122.5,378.5h149.2v72.2H122.5
			V378.5z M431.7,537.1H282.5V378.5h149.2V537.1z M122.5,537.1v-75.7h149.2v75.7H122.5z"/>
		
			<rect x="282.5" y="386.2" transform="matrix(-1 -1.224647e-16 1.224647e-16 -1 704.0522 923.3895)" class="st1" width="139.1" height="150.9"/>
		<path class="st3" d="M288.8,457.2c0,3.6,2.9,6.5,6.5,6.5c3.6,0,6.5-2.9,6.5-6.5s-2.9-6.5-6.5-6.5
			C291.7,450.7,288.8,453.6,288.8,457.2z"/>
		<path class="st4" d="M295.2,463.6c2.6,0,4.8-1.6,5.9-3.8c0.4,0.8,0.6,1.7,0.6,2.7c0,3.6-2.9,6.5-6.5,6.5c-3.6,0-6.5-2.9-6.5-6.5
			c0-1,0.2-1.9,0.6-2.7C290.4,462.1,292.6,463.6,295.2,463.6z"/>
		<polygon class="st3" points="367.6,537.1 334.4,537.1 318.6,386.2 351.8,386.2 		"/>
		<polygon class="st3" points="325.9,537.1 319.3,537.1 303.5,386.2 310.1,386.2 		"/>
		
			<rect x="238.1" y="386.1" transform="matrix(-1 -1.224647e-16 1.224647e-16 -1 489.2985 836.7312)" class="st3" width="13.1" height="64.5"/>
		
			<rect x="183.6" y="386.1" transform="matrix(-1 -1.224647e-16 1.224647e-16 -1 380.268 836.7312)" class="st1" width="13.1" height="64.5"/>
		
			<rect x="224.9" y="390.6" transform="matrix(-1 -1.224647e-16 1.224647e-16 -1 463.002 841.2671)" class="st1" width="13.1" height="60"/>
		
			<rect x="196.7" y="390.6" transform="matrix(-1 -1.224647e-16 1.224647e-16 -1 406.5645 841.2671)" class="st3" width="13.1" height="60"/>
		
			<rect x="209.9" y="386.1" transform="matrix(-1 -1.224647e-16 1.224647e-16 -1 428.2092 836.7312)" class="st0" width="8.5" height="64.5"/>
		
			<rect x="218.4" y="390.6" transform="matrix(-1 -1.224647e-16 1.224647e-16 -1 443.2797 841.2671)" class="st3" width="6.6" height="60"/>
		
			<rect x="170.4" y="386.1" transform="matrix(-1 -1.224647e-16 1.224647e-16 -1 353.9717 836.7312)" class="st0" width="13.1" height="64.5"/>
		
			<rect x="157.3" y="390.6" transform="matrix(-1 -1.224647e-16 1.224647e-16 -1 327.6755 841.2671)" class="st2" width="13.1" height="60"/>
		
			<rect x="129" y="390.6" transform="matrix(-1 -1.224647e-16 1.224647e-16 -1 271.2379 841.2671)" class="st2" width="13.1" height="60"/>
		
			<rect x="142.2" y="386.1" transform="matrix(-1 -1.224647e-16 1.224647e-16 -1 292.8826 836.7312)" class="st3" width="8.5" height="64.5"/>
		
			<rect x="150.7" y="390.6" transform="matrix(-1 -1.224647e-16 1.224647e-16 -1 307.9533 841.2671)" class="st0" width="6.6" height="60"/>
		
			<rect x="122.5" y="387.6" transform="matrix(-1 -1.224647e-16 1.224647e-16 -1 251.5157 838.26)" class="st0" width="6.6" height="63"/>
		<rect x="122.5" y="472.6" class="st0" width="13.1" height="64.5"/>
		<rect x="177" y="472.6" class="st3" width="13.1" height="64.5"/>
		<rect x="135.6" y="477.1" class="st3" width="13.1" height="60"/>
		<rect x="163.8" y="477.1" class="st0" width="13.1" height="60"/>
		<rect x="155.3" y="472.6" class="st3" width="8.5" height="64.5"/>
		<rect x="148.8" y="477.1" class="st1" width="6.6" height="60"/>
		<rect x="190.1" y="472.6" class="st0" width="13.1" height="64.5"/>
		<rect x="203.3" y="477.1" class="st1" width="13.1" height="60"/>
		<rect x="231.5" y="477.1" class="st2" width="13.1" height="60"/>
		<rect x="223" y="472.6" class="st3" width="8.5" height="64.5"/>
		<rect x="251.2" y="472.6" class="st3" width="8.5" height="64.5"/>
		<rect x="216.4" y="477.1" class="st0" width="6.6" height="60"/>
		<rect x="244.6" y="474.1" class="st0" width="6.6" height="63"/>
	</g>
	<g>
		<g>
			<g>
				<g>
					<g>
						<g>
							<path class="st2" d="M137.1,248.5c0,0-2.2,1-3.2,3.1c-1,2.1,2.1,5.8,2.1,5.8s2.6,1.8,5.2,0.6c2.6-1.2,2.6-1.2,2.6-1.2
								s-4.5-7.7-6.6-7.8L137.1,248.5z"/>
						</g>
					</g>
					<g>
						<g>
							<path class="st2" d="M148.3,248.4c0.3,3.7-2,8.3-5.2,8.6c-3.3,0.3-6.3-3.9-6.6-7.6c-0.3-3.7,2.3-4,5.6-4.3
								C145.3,244.9,148,244.7,148.3,248.4z"/>
						</g>
						<g>
							<path class="st2" d="M138.7,247.3c0,0,2.5,2,7.7,0.8C146.4,248.2,138.2,253.6,138.7,247.3z"/>
						</g>
						<g>
							<path class="st2" d="M140.9,246.6c0,0,2.9-0.5,2.9,0.7c0,0,2.5-0.1,2.1-1.2C145.6,245.1,140.9,246.6,140.9,246.6z"/>
						</g>
						<g class="st6">
							<path class="st3" d="M138.7,247.3c0,0,2.5,2,7.7,0.8C146.4,248.2,138.2,253.6,138.7,247.3z"/>
						</g>
						<g class="st6">
							<path class="st3" d="M140.9,246.6c0,0,2.9-0.5,2.9,0.7c0,0,2.5-0.1,2.1-1.2C145.6,245.1,140.9,246.6,140.9,246.6z"/>
						</g>
					</g>
					<g>
						<path class="st2" d="M137.6,258.2c1,1.7,3.2,2.6,5.1,2.3c2-0.2,3.8-1.5,4.9-3.1c1.1-1.6,1.7-3.6,1.8-5.6c0-0.5,0.1-1.8-0.6-2
							c-0.6-0.2-1,0.7-1.3,1.1c-0.8,1.2-1.7,2.3-2.8,3.2c-1,0.9-2.1,1.8-3.4,2.4C141.1,256.8,137.8,258.5,137.6,258.2z"/>
					</g>
					<g>
						<path class="st2" d="M151.6,250.8c0.6,1.5,0.4,3.3-0.6,4.6c-0.6,0.8-1.5,1.5-2.4,2c-0.6,0.4-1.4,0.7-2.1,0.3
							c-0.7-0.4-0.6-1.4-0.5-2.2c0.2-1.2,0.5-2.4,0.8-3.6c0.2-1,0.4-2.6,1-3.4c0.5-0.8,1.3-0.3,2.1,0.2
							C150.7,249.3,151.3,250,151.6,250.8z"/>
					</g>
					<g class="st6">
						<path class="st3" d="M138.4,256.1c-1.3-0.1-2.5-0.9-2.9-2.1c-0.3-0.9-0.3-3.1,0.8-3.4C136.8,252.6,137.2,254.4,138.4,256.1z"
							/>
					</g>
					<g class="st6">
						<path class="st3" d="M147,256.1c1.2-0.3,2.2-1.3,2.6-2.5c0.2-0.7-0.1-4-1.1-2.6c-0.3,0.5-0.3,1.9-0.4,2.5
							C147.8,254.4,147.4,255.2,147,256.1z"/>
					</g>
					<g class="st6">
						<path class="st3" d="M142.4,258.1c0.9,0.8,2.4,0.8,3.4,0.1c-0.1,0.6-2.2,1.2-2.8,1.4c-1.7,0.5-2.5-0.2-4.1-0.9
							C138.8,258.7,141.4,259.1,142.4,258.1z"/>
					</g>
				</g>
				<g>
					<g>
						<polygon class="st4" points="139.5,325.6 139.7,275.6 142.2,260.4 143.2,260.6 140.7,275.7 140.5,326.6 						"/>
					</g>
				</g>
				<g>
					<path class="st4" d="M140.6,275.4l-0.8,0.6c-0.8-1-1.5-2.4-2.3-3.9c-1.3-2.4-2.7-5.1-4.9-7.5l0.7-0.7c2.3,2.5,3.7,5.3,5,7.7
						C139.1,273.1,139.8,274.4,140.6,275.4z"/>
				</g>
				<g>
					<path class="st2" d="M141.2,268.7c1.3-0.3,2.5-1.2,3.3-2.3c0.9-1.3,1.2-2.9,1.5-4.4c-1.7,0.5-3.6-0.3-5.4-0.1
						c-1.4,0.2-2.8,1-3.5,2.3c-0.9,1.6-1.3,3.4-0.5,4.2C137.3,268.8,139.4,269.1,141.2,268.7z"/>
				</g>
				<g>
					<g>
						<path class="st2" d="M134.5,265.2c-1.6,1-3.6,1.3-5.4,0.7c-1.8-0.6-2.3-3.3-3-5c1.6-0.3,5.8-0.1,6.7,0
							c0.9,0.1,1.9,0.5,2.4,1.3c0.5,0.8,0.4,2-0.4,2.5C134.7,264.7,134.5,265.2,134.5,265.2z"/>
					</g>
				</g>
				<g>
					<g>
						<path class="st2" d="M126.3,268.1c1.1-1.3,3.8-2.3,5.5-2c1.7,0.3,3.1,1.5,3.7,2.9c-0.4,1.1-1.6,1.7-2.8,1.8
							c-1.2,0.1-2.3-0.3-3.4-0.6c-1.1-0.3-2.3-0.7-3.4-0.6L126.3,268.1z"/>
					</g>
				</g>
			</g>
			<g>
				<g>
					<g>
						<g>
							<path class="st2" d="M159.7,259.5c0,0,1.8,1.6,2.2,3.9c0.4,2.3-3.7,5-3.7,5s-3,1-5.2-0.9c-2.1-1.9-2.1-1.9-2.1-1.9
								s6.5-6.1,8.6-5.5L159.7,259.5z"/>
						</g>
					</g>
					<g>
						<g>
							<path class="st2" d="M149,256.2c-1.4,3.4-0.6,8.5,2.5,9.8c3.1,1.2,7.2-1.9,8.6-5.3c1.4-3.4-1-4.5-4.1-5.8
								C152.9,253.7,150.4,252.8,149,256.2z"/>
						</g>
						<g>
							<path class="st2" d="M158.5,258c0,0-3,1.2-7.6-1.5C150.9,256.5,157.1,264.1,158.5,258z"/>
						</g>
						<g>
							<path class="st2" d="M156.6,256.6c0,0-2.6-1.3-3-0.2c0,0-2.3-0.9-1.7-1.7C152.5,253.8,156.6,256.6,156.6,256.6z"/>
						</g>
						<g class="st6">
							<path class="st3" d="M158.5,258c0,0-3,1.2-7.6-1.5C150.9,256.5,157.1,264.1,158.5,258z"/>
						</g>
						<g class="st6">
							<path class="st3" d="M156.6,256.6c0,0-2.6-1.3-3-0.2c0,0-2.3-0.9-1.7-1.7C152.5,253.8,156.6,256.6,156.6,256.6z"/>
						</g>
					</g>
					<g>
						<path class="st2" d="M156.4,268.7c-1.5,1.3-3.8,1.5-5.6,0.7c-1.8-0.8-3.2-2.5-3.8-4.4c-0.6-1.9-0.5-4-0.1-5.9
							c0.1-0.5,0.5-1.7,1.2-1.7c0.6,0,0.8,1,0.9,1.4c0.4,1.4,1,2.7,1.7,3.9c0.7,1.2,1.5,2.3,2.5,3.3
							C153.5,266.3,156.1,268.9,156.4,268.7z"/>
					</g>
					<g>
						<path class="st2" d="M145.1,257.5c-1,1.2-1.3,3-0.8,4.6c0.4,1,1,1.8,1.7,2.6c0.5,0.5,1.2,1.1,1.9,0.9c0.8-0.2,1-1.2,1.1-2
							c0.1-1.2,0.2-2.4,0.3-3.7c0.1-1,0.4-2.6,0.1-3.6c-0.3-0.9-1.1-0.7-2.1-0.4C146.5,256.3,145.7,256.8,145.1,257.5z"/>
					</g>
					<g class="st6">
						<path class="st3" d="M156.2,266.5c1.2,0.3,2.6-0.1,3.4-1.1c0.6-0.7,1.2-2.9,0.2-3.5C158.8,263.6,157.9,265.2,156.2,266.5z"/>
					</g>
					<g class="st6">
						<path class="st3" d="M148.1,263.9c-1-0.7-1.7-1.9-1.7-3.1c0-0.7,1.2-3.8,1.8-2.2c0.2,0.5-0.3,1.9-0.3,2.5
							C147.8,262,147.9,263,148.1,263.9z"/>
					</g>
					<g class="st6">
						<path class="st3" d="M151.8,267.2c-1.1,0.5-2.5,0.1-3.2-0.9c-0.1,0.7,1.7,1.8,2.3,2.1c1.4,1,2.5,0.5,4.2,0.3
							C155.1,268.8,152.5,268.4,151.8,267.2z"/>
					</g>
				</g>
				<g>
					<g>
						<polygon class="st4" points="138.1,318.2 138.7,316.1 139.6,313.4 140.5,310.2 148.3,284.5 149.3,277.2 150.1,270.7 
							150.3,269.3 150.8,269.4 150.8,269.4 151.3,269.5 151.3,269.6 151.1,270.8 150.2,277.8 149.4,283.5 149.3,284.7 149.2,284.9 
							140.5,313.5 139.5,316.8 139.1,318.2 138.5,320.3 						"/>
					</g>
				</g>
				<g>
					<path class="st4" d="M148.5,284.2l0.6,0.8c1.1-0.7,2.1-1.8,3.4-3.1c1.9-1.9,4.1-4.1,6.9-5.7l-0.5-0.8c-2.9,1.7-5.1,3.9-7.1,5.9
						C150.5,282.5,149.5,283.5,148.5,284.2z"/>
				</g>
				<g>
					<path class="st2" d="M149.9,277.7c-1.2-0.7-2.1-1.9-2.5-3.2c-0.5-1.5-0.3-3.1-0.1-4.7c1.5,1,3.5,0.7,5.2,1.5
						c1.3,0.6,2.3,1.8,2.7,3.2c0.4,1.8,0.2,3.7-0.8,4.1C153.6,279,151.5,278.6,149.9,277.7z"/>
				</g>
				<g>
					<g>
						<path class="st2" d="M157.3,276.3c1.2,1.4,3.1,2.3,5,2.3c1.9,0,3.2-2.5,4.4-3.9c-1.5-0.8-5.5-1.8-6.4-2
							c-0.9-0.2-2-0.1-2.7,0.6c-0.7,0.6-1,1.8-0.4,2.5C157.2,275.7,157.3,276.3,157.3,276.3z"/>
					</g>
				</g>
				<g>
					<g>
						<path class="st2" d="M164.3,281.5c-0.7-1.6-3-3.3-4.7-3.5c-1.7-0.2-3.4,0.5-4.4,1.6c0.1,1.2,1.1,2.1,2.2,2.5
							c1.1,0.4,2.3,0.4,3.4,0.4c1.2,0,2.4,0,3.4,0.4L164.3,281.5z"/>
					</g>
				</g>
			</g>
			<g>
				<g>
					<g>
						<g>
							<path class="st2" d="M124.6,257.5c0,0-2,1.4-2.6,3.6c-0.6,2.2,3.1,5.4,3.1,5.4s2.9,1.3,5.3-0.3c2.4-1.6,2.4-1.6,2.4-1.6
								s-5.8-6.8-7.9-6.5L124.6,257.5z"/>
						</g>
					</g>
					<g>
						<g>
							<path class="st2" d="M135.5,255.5c1,3.6-0.4,8.5-3.6,9.4c-3.2,0.9-6.9-2.7-7.9-6.2c-1-3.6,1.6-4.4,4.7-5.3
								C132,252.5,134.6,251.9,135.5,255.5z"/>
						</g>
						<g>
							<path class="st2" d="M125.9,256.1c0,0,2.8,1.5,7.7-0.6C133.6,255.6,126.6,262.4,125.9,256.1z"/>
						</g>
						<g>
							<path class="st2" d="M127.9,255c0,0,2.8-1,3,0.2c0,0,2.4-0.6,1.9-1.5C132.3,252.7,127.9,255,127.9,255z"/>
						</g>
						<g class="st6">
							<path class="st3" d="M125.9,256.1c0,0,2.8,1.5,7.7-0.6C133.6,255.6,126.6,262.4,125.9,256.1z"/>
						</g>
						<g class="st6">
							<path class="st3" d="M127.9,255c0,0,2.8-1,3,0.2c0,0,2.4-0.6,1.9-1.5C132.3,252.7,127.9,255,127.9,255z"/>
						</g>
					</g>
					<g>
						<path class="st2" d="M126.7,267c1.3,1.5,3.6,2,5.5,1.4c1.9-0.6,3.4-2.1,4.3-3.9c0.8-1.8,1-3.9,0.8-5.8c-0.1-0.5-0.3-1.8-1-1.9
							c-0.6-0.1-0.9,0.9-1.1,1.3c-0.6,1.3-1.3,2.5-2.1,3.7c-0.8,1.1-1.8,2.1-2.9,3C129.9,265,127,267.3,126.7,267z"/>
					</g>
					<g>
						<path class="st2" d="M139.3,257.3c0.9,1.4,1,3.2,0.3,4.6c-0.5,0.9-1.3,1.7-2,2.4c-0.6,0.5-1.3,1-2,0.7
							c-0.7-0.3-0.9-1.3-0.8-2.1c0-1.2,0.1-2.4,0.1-3.7c0.1-1-0.1-2.6,0.3-3.5c0.4-0.9,1.2-0.5,2.1-0.1
							C138.1,255.9,138.8,256.5,139.3,257.3z"/>
					</g>
					<g class="st6">
						<path class="st3" d="M127.2,264.8c-1.3,0.2-2.6-0.5-3.3-1.5c-0.5-0.8-0.9-3,0.2-3.5C125,261.7,125.7,263.4,127.2,264.8z"/>
					</g>
					<g class="st6">
						<path class="st3" d="M135.6,263.2c1.1-0.6,1.9-1.7,2.1-2.9c0.1-0.7-0.8-3.9-1.5-2.4c-0.2,0.5,0.1,2,0,2.6
							C136.1,261.4,135.9,262.3,135.6,263.2z"/>
					</g>
					<g class="st6">
						<path class="st3" d="M131.4,266.1c1.1,0.6,2.5,0.4,3.3-0.5c0,0.7-1.9,1.6-2.5,1.9c-1.5,0.8-2.5,0.2-4.2-0.2
							C128,267.3,130.6,267.2,131.4,266.1z"/>
					</g>
				</g>
				<g>
					<g>
						<polygon class="st4" points="140.8,333 131.9,283.8 131.7,268.4 132.7,268.4 132.9,283.7 141.9,333.8 						"/>
					</g>
				</g>
				<g>
					<path class="st4" d="M132.8,283.4l-0.7,0.7c-1-0.9-1.9-2.1-3-3.4c-1.7-2.1-3.6-4.5-6.1-6.5l0.6-0.8c2.7,2,4.6,4.5,6.3,6.7
						C130.9,281.4,131.9,282.6,132.8,283.4z"/>
				</g>
				<g>
					<path class="st2" d="M132.1,276.7c1.2-0.6,2.3-1.6,2.8-2.9c0.6-1.4,0.6-3,0.6-4.6c-1.6,0.8-3.6,0.3-5.3,0.9
						c-1.4,0.4-2.5,1.5-3,2.9c-0.6,1.8-0.7,3.6,0.3,4.2C128.3,277.6,130.5,277.5,132.1,276.7z"/>
				</g>
				<g>
					<g>
						<path class="st2" d="M125,274.5c-1.4,1.3-3.4,1.9-5.2,1.6c-1.9-0.3-2.9-2.8-3.9-4.4c1.5-0.6,5.7-1.1,6.6-1.2
							c0.9-0.1,1.9,0.2,2.6,0.9c0.6,0.7,0.8,1.9,0.1,2.6C125.1,273.9,125,274.5,125,274.5z"/>
					</g>
				</g>
				<g>
					<g>
						<path class="st2" d="M117.4,278.8c0.8-1.5,3.3-2.9,5-2.9c1.7,0,3.4,0.9,4.2,2.1c-0.2,1.1-1.3,2-2.4,2.2
							c-1.1,0.3-2.3,0.2-3.5,0c-1.2-0.1-2.3-0.3-3.5,0L117.4,278.8z"/>
					</g>
				</g>
			</g>
		</g>
		<g>
			<path class="st5" d="M144.4,302.8H134c-0.8,0-1.5,0.5-1.7,1.2c-0.9,2.7-2.7,9.8-2.7,20.9c0,12.2,3.2,28.5,4.2,33.3
				c0.2,0.8,0.9,1.4,1.7,1.4h7.2c0.8,0,1.5-0.6,1.7-1.4c1-4.8,4.2-21,4.2-33.3c0-11.1-1.8-18.2-2.7-20.9
				C145.8,303.3,145.1,302.8,144.4,302.8z"/>
		</g>
	</g>
</g>
<ellipse id="_x3C_Path_x3E__359_" class="st1" cx="429.8" cy="625.4" rx="336.1" ry="19.6"/>
<g>
	<g>
		<g>
			<g>
				<path class="st7" d="M205.8,557.9c-0.6,0-1-0.5-1-1.1c1.3-51,3.9-134.5,4-135c0.2-0.6,0.8-0.9,1.4-0.7c0.6,0.2,0.9,0.8,0.7,1.4
					c0,0.1-2.7,84-4,134.4C207,557.4,206.5,557.9,205.8,557.9C205.8,557.9,205.8,557.9,205.8,557.9z"/>
			</g>
			<g>
				<g>
					<path class="st8" d="M198.9,387.8c0.4,3.9,5.1,17.5,9,17.1c3.9-0.4,5.6-14.7,5.2-18.6c-0.4-3.9-4-6.8-7.9-6.3
						C201.4,380.3,198.5,383.8,198.9,387.8z"/>
					<path class="st8" d="M218,430.7c-0.4-3.9-5.1-17.5-9-17.1c-3.9,0.4-5.6,14.7-5.2,18.6c0.4,3.9,4,6.8,7.9,6.3
						C215.6,438.1,218.4,434.6,218,430.7z"/>
					<path class="st8" d="M187,418.7c3.9-0.4,17.5-5.1,17.1-9c-0.4-3.9-14.7-5.6-18.6-5.2c-3.9,0.4-6.8,4-6.3,7.9
						C179.6,416.3,183.1,419.2,187,418.7z"/>
					<path class="st8" d="M229.9,399.7c-3.9,0.4-17.5,5.1-17.1,9c0.4,3.9,14.7,5.6,18.6,5.2c3.9-0.4,6.8-4,6.3-7.9
						C237.4,402.1,233.9,399.3,229.9,399.7z"/>
					<path class="st8" d="M186.6,400.8c3.1,2.5,16,8.8,18.5,5.7c2.5-3.1-6.5-14.4-9.5-16.8c-3.1-2.5-7.6-2-10,1.1
						C183,393.8,183.5,398.3,186.6,400.8z"/>
					<path class="st8" d="M230.4,417.7c-3.1-2.5-16-8.8-18.5-5.7c-2.5,3.1,6.5,14.4,9.5,16.8c3.1,2.5,7.6,2,10-1.1
						C233.9,424.6,233.5,420.1,230.4,417.7z"/>
					<path class="st8" d="M200,431.1c2.5-3.1,8.8-16,5.7-18.5c-3.1-2.5-14.4,6.5-16.8,9.5c-2.5,3.1-2,7.6,1.1,10
						C193.1,434.7,197.6,434.2,200,431.1z"/>
					<path class="st8" d="M216.9,387.3c-2.5,3.1-8.8,16-5.7,18.5c3.1,2.5,14.4-6.5,16.8-9.5c2.5-3.1,2-7.6-1.1-10
						C223.9,383.7,219.4,384.2,216.9,387.3z"/>
				</g>
				<g class="st9">
					<path class="st10" d="M198.9,387.8c0.4,3.9,5.1,17.5,9,17.1c3.9-0.4,5.6-14.7,5.2-18.6c-0.4-3.9-4-6.8-7.9-6.3
						C201.4,380.3,198.5,383.8,198.9,387.8z"/>
					<path class="st10" d="M218,430.7c-0.4-3.9-5.1-17.5-9-17.1c-3.9,0.4-5.6,14.7-5.2,18.6c0.4,3.9,4,6.8,7.9,6.3
						C215.6,438.1,218.4,434.6,218,430.7z"/>
					<path class="st10" d="M187,418.7c3.9-0.4,17.5-5.1,17.1-9c-0.4-3.9-14.7-5.6-18.6-5.2c-3.9,0.4-6.8,4-6.3,7.9
						C179.6,416.3,183.1,419.2,187,418.7z"/>
					<path class="st10" d="M229.9,399.7c-3.9,0.4-17.5,5.1-17.1,9c0.4,3.9,14.7,5.6,18.6,5.2c3.9-0.4,6.8-4,6.3-7.9
						C237.4,402.1,233.9,399.3,229.9,399.7z"/>
					<path class="st10" d="M186.6,400.8c3.1,2.5,16,8.8,18.5,5.7c2.5-3.1-6.5-14.4-9.5-16.8c-3.1-2.5-7.6-2-10,1.1
						C183,393.8,183.5,398.3,186.6,400.8z"/>
					<path class="st10" d="M230.4,417.7c-3.1-2.5-16-8.8-18.5-5.7c-2.5,3.1,6.5,14.4,9.5,16.8c3.1,2.5,7.6,2,10-1.1
						C233.9,424.6,233.5,420.1,230.4,417.7z"/>
					<path class="st10" d="M200,431.1c2.5-3.1,8.8-16,5.7-18.5c-3.1-2.5-14.4,6.5-16.8,9.5c-2.5,3.1-2,7.6,1.1,10
						C193.1,434.7,197.6,434.2,200,431.1z"/>
					<path class="st10" d="M216.9,387.3c-2.5,3.1-8.8,16-5.7,18.5c3.1,2.5,14.4-6.5,16.8-9.5c2.5-3.1,2-7.6-1.1-10
						C223.9,383.7,219.4,384.2,216.9,387.3z"/>
				</g>
				<path class="st8" d="M200.1,410.1c0.5,4.6,4.7,8,9.3,7.5c4.6-0.5,8-4.7,7.5-9.3c-0.5-4.6-4.7-8-9.3-7.5
					C202.9,401.3,199.6,405.5,200.1,410.1z"/>
			</g>
		</g>
		<g>
			<path class="st8" d="M200.9,520.6c-9.8,0.2-26.5-8.8-33.1-17.6c-6.7-8.9,12-3.4,10.1-10.5c-1.9-7-25-1.8-29.3-11.8
				c-4.3-10.1,12.4-7.8,11.7-12.9c-0.7-5.1-17.9-4-23.5-14.7c-5.6-10.7,9.6-4.7,7.2-9.2c-2.4-4.4-21.4-23.1-13.5-27
				c7.9-3.9,25.8,15.5,31.8,17.6c6,2.2,7.3-11.3,15.1-4.9c7.8,6.4,2.1,34.5,11.2,38.2c6.8,2.7,3.9-10.1,11.7-6.9
				C214.2,466.5,204.9,520.5,200.9,520.6z"/>
			<g class="st6">
				<path class="st10" d="M200.9,520.6c-9.8,0.2-26.5-8.8-33.1-17.6c-6.7-8.9,12-3.4,10.1-10.5c-1.9-7-25-1.8-29.3-11.8
					c-4.3-10.1,12.4-7.8,11.7-12.9c-0.7-5.1-17.9-4-23.5-14.7c-5.6-10.7,9.6-4.7,7.2-9.2c-2.4-4.4-21.4-23.1-13.5-27
					c7.9-3.9,25.8,15.5,31.8,17.6c6,2.2,7.3-11.3,15.1-4.9c7.8,6.4,2.1,34.5,11.2,38.2c6.8,2.7,3.9-10.1,11.7-6.9
					C214.2,466.5,204.9,520.5,200.9,520.6z"/>
			</g>
		</g>
		<g>
			<g>
				<path class="st8" d="M214.9,508.2c0.2,0.3-1.3,1.7,3.5,1.9c11.9,0.5,32.9-0.3,40.8-11.1c11.3-15.4-14.7-14-12.2-22.5
					c2.5-8.5,30.4-1.6,35.9-13.7c5.4-12.1-14.8-9.8-13.9-16c0.9-6.2,22.2,1.8,29.2-11c7-12.9-11.6-6-8.6-11.3
					c3-5.3,26.6-27.5,17.1-32.5c-9.6-4.9-31.7,18.2-39.1,20.7c-7.3,2.5-9-20.3-18.6-12.6c-9.6,7.6-3.3,41.9-14.5,46.2
					c-8.4,3.2-3.8-9.1-14.1-8.7C206.4,438.1,201.8,486.2,214.9,508.2z"/>
			</g>
			<g class="st11">
				<path class="st10" d="M214.9,508.2c0.2,0.3-1.3,1.7,3.5,1.9c11.9,0.5,32.9-0.3,40.8-11.1c11.3-15.4-14.7-14-12.2-22.5
					c2.5-8.5,30.4-1.6,35.9-13.7c5.4-12.1-14.8-9.8-13.9-16c0.9-6.2,22.2,1.8,29.2-11c7-12.9-11.6-6-8.6-11.3
					c3-5.3,26.6-27.5,17.1-32.5c-9.6-4.9-31.7,18.2-39.1,20.7c-7.3,2.5-9-20.3-18.6-12.6c-9.6,7.6-3.3,41.9-14.5,46.2
					c-8.4,3.2-3.8-9.1-14.1-8.7C206.4,438.1,201.8,486.2,214.9,508.2z"/>
			</g>
		</g>
		<g>
			<g>
				<g>
					<g>
						<g>
							<g>
								<g>
									<g>
										<g>
											<path class="st7" d="M206,550.2C206,550.2,206,550.2,206,550.2c-0.5-0.1-0.8-0.4-0.7-0.9c9.7-79.8,55.7-112.2,56.2-112.5
												c0.4-0.2,0.8-0.2,1.1,0.2c0.2,0.4,0.2,0.8-0.2,1.1c-0.5,0.3-45.8,32.4-55.5,111.4C206.8,549.9,206.4,550.2,206,550.2z"/>
										</g>
										<g>
											<path class="st7" d="M251,447.9c-0.3,0-0.6-0.2-0.7-0.5c-0.1-0.4,0.1-0.8,0.5-1c0.3-0.1,7.1-2.3,18.3,0.1
												c0.4,0.1,0.7,0.5,0.6,0.9c-0.1,0.4-0.5,0.7-0.9,0.6c-10.8-2.3-17.5-0.2-17.5-0.2C251.2,447.9,251.1,447.9,251,447.9z"/>
										</g>
										<g>
											<path class="st7" d="M242.5,457.6c-0.4,0-0.7-0.4-0.7-0.8c-0.2-24.1,13.7-43,13.9-43.2c0.3-0.3,0.7-0.4,1.1-0.2
												c0.3,0.3,0.4,0.7,0.2,1.1c-0.1,0.2-13.8,18.6-13.6,42.2C243.3,457.2,243,457.6,242.5,457.6
												C242.5,457.6,242.5,457.6,242.5,457.6z"/>
										</g>
										<g>
											<path class="st7" d="M228.8,478c-0.2,0-0.4-0.1-0.5-0.2c-0.3-0.3-0.3-0.8,0-1.1c0.1-0.1,10.4-9.7,24-4.8
												c0.4,0.1,0.6,0.6,0.5,1c-0.1,0.4-0.6,0.6-1,0.5c-12.7-4.5-22.3,4.4-22.4,4.5C229.2,478,229,478,228.8,478z"/>
										</g>
										<g>
											<path class="st7" d="M221.7,492.3c-0.3,0-0.6-0.2-0.7-0.5c-0.2-0.5-5.3-12.6-2.5-29.9c0.1-0.4,0.4-0.7,0.9-0.6
												c0.4,0.1,0.7,0.5,0.6,0.9c-2.7,16.8,2.3,28.9,2.4,29.1c0.2,0.4,0,0.8-0.4,1C221.9,492.2,221.8,492.3,221.7,492.3z"/>
										</g>
									</g>
								</g>
							</g>
						</g>
					</g>
				</g>
				<g>
					<g>
						<g>
							<path class="st7" d="M206.3,578.7c-0.4,0-0.7-0.3-0.7-0.7l-1-21.1c-3-70.3-51.1-118-51.6-118.5c-0.3-0.3-0.3-0.8,0-1.1
								c0.3-0.3,0.8-0.3,1.1,0c0.5,0.5,49.1,48.7,52.1,119.6l1,21.1C207.2,578.3,206.8,578.7,206.3,578.7
								C206.4,578.7,206.4,578.7,206.3,578.7z"/>
						</g>
						<g>
							<path class="st7" d="M172.8,464.7c0,0-0.1,0-0.1,0c-0.1,0-0.2,0-0.2-0.1l-0.2-0.1c-6.3-2.6-13.4-4-19.8-3.8
								c-0.4,0-0.8-0.3-0.8-0.8c0-0.4,0.3-0.8,0.8-0.8c6.7-0.1,14,1.3,20.5,4l0.3,0.1c0,0,0.1,0,0.1,0.1c0.3,0.2,0.5,0.5,0.4,0.8
								C173.5,464.5,173.2,464.7,172.8,464.7z"/>
						</g>
						<g>
							<path class="st7" d="M179.7,473.7C179.6,473.7,179.6,473.7,179.7,473.7c-0.5,0-0.8-0.4-0.7-0.8c1.9-20.7-8.9-37.8-9-38
								c-0.2-0.4-0.1-0.8,0.2-1.1c0.4-0.2,0.8-0.1,1.1,0.2c0.1,0.2,11.1,17.7,9.2,38.9C180.4,473.5,180.1,473.8,179.7,473.7z"/>
						</g>
						<g>
							<path class="st7" d="M186.7,485.8c-0.2,0-0.4-0.1-0.5-0.2c-0.1-0.1-7.9-7.8-19.4-4.8c-0.4,0.1-0.8-0.1-0.9-0.5
								c-0.1-0.4,0.1-0.8,0.5-0.9c12.3-3.3,20.5,4.8,20.9,5.2c0.3,0.3,0.3,0.8,0,1.1C187.1,485.7,186.9,485.8,186.7,485.8z"/>
						</g>
						<g>
							<path class="st7" d="M195.6,505.6c-0.1,0-0.2,0-0.3-0.1c-0.4-0.2-0.5-0.7-0.3-1c0.1-0.1,5.4-10.5,4.1-25.4
								c0-0.4,0.3-0.8,0.7-0.8c0.4-0.1,0.8,0.3,0.8,0.7c1.2,15.4-4.1,25.8-4.3,26.3C196.2,505.4,195.9,505.6,195.6,505.6z"/>
						</g>
					</g>
				</g>
			</g>
		</g>
	</g>
	<g>
		<g>
			<path class="st8" d="M249.8,582c0,24.6-11.1,44.6-44.6,44.6c-32,0-44.6-20-44.6-44.6c0-9.3,2.9-17.9,7.7-25.1h73.9
				C246.9,564.1,249.8,572.7,249.8,582z"/>
			<path class="st12" d="M249.8,582c0,24.6-11.1,44.6-44.6,44.6c-32,0-44.6-20-44.6-44.6c0-9.3,2.9-17.9,7.7-25.1h73.9
				C246.9,564.1,249.8,572.7,249.8,582z"/>
		</g>
	</g>
</g>
<g>
	<g>
		<g>
			<g>
				<g>
					<g>
						<polygon class="st13" points="506.3,604.9 523.5,602.3 519.2,561.9 501.9,564.5 						"/>
						<g>
							<path class="st8" d="M536.8,602.9c1.5-0.1,2.9-0.7,4-1.7c0.5-0.6,0.6-1.4,0.4-2.1c-0.1-0.5-0.4-0.8-0.9-1
								c-2.3-0.8-8.6,3.8-9.3,4.4c-0.1,0.1-0.2,0.3-0.2,0.5c0.1,0.2,0.2,0.3,0.4,0.3C533.1,603.3,535,603.2,536.8,602.9z
								 M539.2,598.9c0.3-0.1,0.5-0.1,0.8,0c0.2,0.1,0.3,0.2,0.4,0.4c0.1,0.5,0,1-0.3,1.4c-0.9,1.1-3.7,1.7-7.6,1.7
								C534.5,600.9,536.8,599.7,539.2,598.9L539.2,598.9z"/>
							<path class="st8" d="M531.4,603.2l0.1-0.1c1.9-1.3,5.4-5.7,4.7-7.6c-0.2-0.4-0.6-1-1.7-0.9c-0.8,0-1.6,0.4-2.2,1
								c-1.9,2.1-1.5,6.9-1.5,7.1c0,0.1,0.1,0.3,0.2,0.4C531.1,603.2,531.2,603.3,531.4,603.2z M534.3,595.6l0.2-0.1
								c0.8,0,0.9,0.3,0.9,0.3c0.4,1.1-1.9,4.5-3.8,6.1c-0.2-2,0.3-4,1.3-5.7C533.3,595.8,533.8,595.6,534.3,595.6L534.3,595.6z"/>
						</g>
						<path class="st7" d="M521.8,595.2l-15.3,3.6c-0.7,0.1-1.2,0.8-1.1,1.5l0.5,22.2c0.2,1.6,1.6,2.6,3.2,2.4c0.1,0,0.2,0,0.3-0.1
							c6.6-1.7,9.8-2.8,18.2-4.7c5.2-1.2,21.5-2.4,28.3-5.4c6.7-3,4.1-9.8,1-9.1c-9.8,2.1-22.5-2.1-29.7-8.5
							C526.2,596.6,522.8,594.9,521.8,595.2z"/>
						<polygon class="st6" points="519.2,561.9 521.4,582.8 504.1,585.3 501.9,564.5 						"/>
						<path class="st8" d="M528.4,574.2l-31.9,6c0,0-15.5-22.1-18.4-37.9c-3-16.4,0.2-72.1,0-72.9c-9-30.5-33.6-109.6-45.4-138.7
							c-6.6-16.1-11.2-27-11.2-27l3.3-0.7l26.1-10.7l19,3.6c0,0,57.8,116.8,63.8,160.7C538.1,489.4,528.4,574.2,528.4,574.2z"/>
						<path class="st14" d="M528.4,574.2l-31.9,6c0,0-15.5-22.1-18.4-37.9c-3-16.4,0.2-72.1,0-72.9c-9-30.5-33.6-109.6-45.4-138.7
							c-6.6-16.1-11.2-27-11.2-27l3.3-0.7l26.1-10.7l19,3.6c0,0,57.8,116.8,63.8,160.7C538.1,489.4,528.4,574.2,528.4,574.2z"/>
						<path class="st15" d="M470.5,443c-9-30.5-27.3-76.8-39.1-105.9l-7.9-27.7l-1.5-5.3l2.7,5l31,68.6
							C469.3,403.9,470.7,443.7,470.5,443z"/>
					</g>
					<g>
						<polygon class="st13" points="330.2,595.4 345.6,601.8 362.1,566.6 346.7,560.1 						"/>
						<g>
							<path class="st8" d="M355.7,609.2c1.2,0.8,2.7,1.1,4.1,0.9c0.7-0.2,1.3-0.7,1.5-1.4c0.2-0.4,0.1-0.9-0.1-1.2
								c-1.3-1.9-8.8-1.9-9.7-1.9c-0.2,0-0.3,0.1-0.4,0.3c0,0.2,0,0.3,0.1,0.4C352.6,607.4,354.1,608.4,355.7,609.2z M359.8,607.5
								c0.2,0.1,0.4,0.3,0.6,0.5c0.1,0.1,0.1,0.3,0.1,0.5c-0.2,0.5-0.5,0.8-1,0.9c-1.3,0.4-3.8-0.8-6.9-3
								C355.1,606.3,357.5,606.7,359.8,607.5L359.8,607.5z"/>
							<path class="st8" d="M351.3,606.3l0.1,0c2.2,0.1,7.3-1.3,7.9-3.2c0.1-0.4,0.1-1.1-0.8-1.7c-0.7-0.5-1.5-0.6-2.3-0.4
								c-2.7,0.6-5,4.5-5.1,4.6c-0.1,0.1-0.1,0.3-0.1,0.4C351.1,606.2,351.2,606.3,351.3,606.3z M357.9,602.1l0.2,0
								c0.6,0.4,0.5,0.7,0.5,0.8c-0.3,1.1-4,2.4-6.4,2.6c1-1.6,2.5-2.9,4.2-3.6C357,601.7,357.5,601.8,357.9,602.1L357.9,602.1z"/>
						</g>
						<path class="st7" d="M348.4,594.7l-13.9-5.8c-0.6-0.3-1.3,0-1.7,0.5l-12.1,17.4c-0.7,1.3-0.2,3,1.1,3.7c0.1,0,0.2,0.1,0.3,0.1
							c6.1,2.5,9.1,3.4,16.7,6.6c4.7,2,18,10.3,24.9,11.8c6.9,1.5,8.7-5.2,6-6.5c-8.8-3.9-16.2-14.3-18.1-23.3
							C351.1,598.3,349.4,595.1,348.4,594.7z"/>
						<polygon class="st6" points="362.7,567 353.8,585 338.6,578.1 347.5,560.2 						"/>
						<path class="st8" d="M365.9,586.6l-30.6-16.3c0,0-5.9-21.8,0-35.7c11.3-26.8,40.7-66.2,40.9-66.9
							c7.9-30.8,21.6-115.3,26.3-146.3c2.6-17.2,4.1-20.9,4.1-20.9l3.2,1.1l46.9,0.1c0,0,8.8,71-25.1,181
							c-8.4,27.4-22.6,50.1-45.8,80.9C377.1,575,365.9,586.6,365.9,586.6z"/>
						<path class="st14" d="M365.9,586.6l-30.6-16.3c0,0-5.9-21.8,0-35.7c11.3-26.8,40.7-66.2,40.9-66.9
							c7.9-30.8,21.6-115.3,26.3-146.3c2.6-17.2,4.1-20.9,4.1-20.9l3.2,1.1l46.9,0.1c0,0,8.8,71-25.1,181
							c-8.4,27.4-22.6,50.1-45.8,80.9C377.1,575,365.9,586.6,365.9,586.6z"/>
					</g>
					<g>
						<g>
							<path class="st13" d="M498.4,243.5c0.3-5.3,3.8-12.1,6.8-15.2c1-1,4.6-2.5,6.7-3.9c10.2-6.7,30.6-15,30.6-15l6.3,5.5
								c0,0-12.4,12-19.8,17.8c-1.5,1.1-3.1,2.5-4.9,4c-3.2,2.7-18.3,12.7-21.2,15.2L498.4,243.5z"/>
							<path class="st13" d="M560.4,206.3l-11.6,8.6l-6.5-4.8c0,0,2.7-3.4,5.4-6c1.2-1.2,1.8-2.7,1.9-4.4c0-2.6,0.4-5.5,1.8-7.7
								c0-0.1,0.1-0.1,0.1-0.1c2.5-3.8,8.4-2.7,9.6,1.7l1.7,6.2C563.4,202.2,562.5,204.8,560.4,206.3z"/>
						</g>
						<g>
							<path class="st7" d="M502.1,245.8l-3.1,2.8c-1-0.8-2.5-2-4.4-3.6c-14.9-12.4-52.4-42.5-37.5-51.1
								c12.8-7.4,26.4,15.2,33.2,21.9c1.4,1.4,5.2,5.8,8.2,11.2C501.8,232.8,504.1,239.8,502.1,245.8z"/>
						</g>
						<path class="st7" d="M498.6,224.4c-5.3,3.9-9.8,8.8-13.2,14.4c2.5,8.1,8.6,15.2,16.4,18.6c4.3-9.9,6.3-20.6,5.4-31.4
							C504.5,225.5,501.3,225,498.6,224.4z"/>
						<path class="st7" d="M416.3,192.2c-5.3,1.7-11.5,0.3-14.9,4.8c-3.4,4.4-4.5,10.3-4.5,15.9c0,7.8,1.8,15.5,3.6,23.1
							c2.2,9.2,4.3,18.4,6.5,27.7c1.5,6.3-0.1,35.6,1.5,36.1c0,0,49-1,61.3-2.7c0,0,1.1-30.1,2.1-40.4c0.2-2.3,3.7-11.9,4.1-14.4
							c1.9-11.4-1.8-19.5-5.8-30.4c0,0-8.7-17.5-12.9-18C449.6,193.1,431.2,187.4,416.3,192.2z"/>
						<path class="st7" d="M414.2,206.6c-0.2-1-8.9-18.6-17.2-6.3c-11.6,17.1-12.4,38.6-12.4,38.6s-7.1,20.9-2.2,25.4
							c5,4.6,10.3,7.5,13.8,4.9c3.5-2.6,5.7-7.7,5.7-7.7S417.3,224.5,414.2,206.6z"/>
						<g>
							<path class="st7" d="M413.7,185.7c-3.7,2.9-3.2,9.5,0.9,11.8c-1,3.5,0.2,7.6,2.9,10.1c2.8,2.4,6.9,3.1,10.3,1.7
								c-1.5,2.6,0.2,6.1,2.7,7.7c2.5,1.6,5.7,1.9,8.7,2.3c3,0.4,6.1,1,8.3,3.1c3.1-4.4,6.2-8.9,9.3-13.3c1.2-1.7,2.4-3.6,2.5-5.7
								c0.1-2.1-1.5-4.4-3.6-4.3c2.1-2.2,2.2-6.1,0.1-8.4c-2.1-2.3-6-2.6-8.4-0.6c0.4-1.8-0.6-3.7-2.1-4.7c-1.5-1-3.4-1.4-5.2-1.6
								L413.7,185.7z"/>
						</g>
						<path class="st13" d="M419.2,163c2.4,8.8,5.3,25.2-0.5,31.6c0,0,16.6,6.6,28.3,19.9c5.5-5.3,4.9-11.3,3.2-15.7
							c-1.3-3.4-4.1-5.9-7.4-7.3c-6.4-2.7-6.5-9.1-5.4-15.2L419.2,163z"/>
						<g>
							<path class="st15" d="M422.8,178.1l6.1,1.7c2.6,0.7,5.3,0.9,8,0.5l0,0c0,1.3-0.3,4.1,0.6,5.6c-3.5,1.7-9.4,0.5-12-2.6
								C424.4,182,423.4,179.6,422.8,178.1z"/>
							<g>
								<g>
									<path class="st13" d="M407.4,155.5c6.4,13.6,8.9,19.5,18.8,23.8c14.9,6.5,30.2-4.4,27.9-19.6c-2-13.7-12.2-33.7-28.1-33.7
										c-11.3-0.1-20.6,9-20.7,20.3C405.3,149.5,406,152.6,407.4,155.5z"/>
									<path class="st7" d="M414.5,129.5c-4.7-2.2-10.5-0.4-14.4,3c-4,3.5-6.4,8.4-8.7,13.2c-1.3,2.6-2.5,5.2-3.1,8
										c-0.6,2.8-0.4,5.9,1.1,8.4c1.5,2.4,4.2,4,7,4.2c1.6,0.1,3.5,1.3,4,2.8c0.5,1.4,0.3,3,0,4.4c-0.2,1.4-0.4,2.9,0,4.3
										c0.7,2.3,3.2,3.7,5.6,3.9c2.4,0.2,4.8-0.5,7.1-1.1c1.5-0.4,2.9-0.2,4.1,0.8c0.3,0.3,0.5,0.6,0.7,0.9
										c0.7,1.4,2.8,1.1,3.4-0.3c2.1-5-1-13-5.5-19c-2.4-3.2-2.3-2.4-3.2-6.3c-0.8-3.3,0.4-6.7,1.9-9.7c1.9-4,4.5-8,3.7-12.8
										C417.7,132.2,416.4,130.4,414.5,129.5z"/>
									<path class="st13" d="M407.8,169.4c2.1,2.3,5.1,3.6,8.2,3.7c4.1,0.1,5.2-3.9,3.2-7.2c-1.8-3-6.1-6.7-9.9-5.3
										C405.6,162.1,405.2,166.6,407.8,169.4z"/>
									<g>
										<path class="st7" d="M433.3,153.1c0.5,1.2,1.4,1.8,2.2,1.5c0.7-0.3,0.9-1.4,0.5-2.6c-0.4-1.2-1.4-1.8-2.2-1.5
											C433.1,150.8,432.9,151.9,433.3,153.1z"/>
										<path class="st7" d="M446,147.6c0.5,1.2,1.4,1.8,2.2,1.5c0.7-0.3,0.9-1.4,0.5-2.6s-1.4-1.8-2.2-1.5
											C445.8,145.3,445.6,146.5,446,147.6z"/>
										<path class="st7" d="M446.2,145.2l2.4-1.9C448.6,143.3,448.1,146,446.2,145.2z"/>
										<path class="st16" d="M442.7,150.2c2.9,2.9,5.2,3.4,8.4,5.4c-0.1,2.8-2.8,3.5-2.8,3.5L442.7,150.2z"/>
										<path class="st7" d="M447,164.6c0.6-0.2,1.1-0.5,1.6-0.8c0.2-0.1,0.2-0.3,0.1-0.5c0,0,0,0,0,0c-0.1-0.2-0.3-0.2-0.5-0.1
											c-2.7,1.6-6,1.7-8.8,0.5c-0.2-0.1-0.4,0-0.5,0.2c-0.1,0.2,0,0.4,0.2,0.5C441.6,165.5,444.4,165.6,447,164.6z"/>
										<path class="st7" d="M432.9,143.6c0,0.3-0.2,0.6-0.6,0.7c-3.3,1-4.8,5.2-4.8,5.2c-0.1,0.4-0.6,0.6-0.9,0.5
											c-0.4-0.1-0.6-0.6-0.5-0.9c0.1-0.2,1.7-5,5.8-6.2c0.4-0.1,0.8,0.1,0.9,0.5C432.8,143.5,432.9,143.6,432.9,143.6z"/>
										<path class="st7" d="M448.2,141.6c-0.3,0.2-0.6,0.1-0.9-0.1c-2.7-2.2-7-1-7-1c-0.4,0.1-0.8-0.1-0.9-0.5
											c-0.1-0.4,0.1-0.8,0.5-0.9c0.2,0,5.1-1.4,8.4,1.2c0.3,0.3,0.4,0.7,0.1,1.1C448.3,141.5,448.3,141.5,448.2,141.6z"/>
										<path class="st7" d="M433.5,150.7l2.4-1.9C436,148.8,435.4,151.5,433.5,150.7z"/>
									</g>
								</g>
								<path class="st7" d="M415.5,127.3c-3.8,0.3-7.4,2.5-9.4,5.7c-1.4,2.1-1.9,5.4,0.2,6.9c1,0.7,2.2,0.8,3.4,0.9
									c5.3,0.5,11.8-3.6,11.8-3.6c-2-8.6,16-15.3,25-1.9c2.6,3.9,1.9,6.8,6.3,8.6c2,0.9,4.7,0.6,6.1,2.4c2.2,3-2,8,0.7,10.5
									c1.8,1.7,5.9,1.1,6.2,3.6c0.1,1.2-0.7,2.9,0.5,3.2c0.6,0.2,1.2-0.4,1.6-0.9c1-1.2,2-2.5,2.3-4.1c0.3-1.5-0.2-3.4-1.7-4.1
									c-1.1-0.5-4,0.1-3.8,1.3c0.2,1.4-1-5.6-0.4-8.3c0.5-2.3,2.7-4.4,2-6.6c-0.7-2.4-3.6-3.4-6.1-3.8c-2.5-0.4-5.4-0.7-6.9-2.7
									c-1.7-2.3-0.9-5.5-1.5-8.3c-0.7-3.5-3.7-6.3-7-7.7C434.5,114,419,114.6,415.5,127.3z"/>
							</g>
						</g>
						<g>
							<g>
								<g>
									<path class="st8" d="M444.1,173.5l-34.7,17.4c-11.4,5.7-16.6,19.2-11.9,31.1l16.7,42.6c4.7,11.9,17.6,18.3,29.8,14.7
										l37.3-10.7c14-4,21.4-19.2,16.1-32.7l-19.3-49.3C472.9,173,457.1,167,444.1,173.5z M438.4,246.7c-7.7,3-16.5-0.8-19.5-8.5
										c-3-7.7,0.8-16.4,8.5-19.5c7.7-3,16.4,0.8,19.5,8.5C449.9,235,446.1,243.7,438.4,246.7z"/>
									<path class="st8" d="M444.1,173.5l-34.7,17.4c-11.4,5.7-16.6,19.2-11.9,31.1l16.7,42.6c4.7,11.9,17.6,18.3,29.8,14.7
										l37.3-10.7c14-4,21.4-19.2,16.1-32.7l-19.3-49.3C472.9,173,457.1,167,444.1,173.5z M438.4,246.7c-7.7,3-16.5-0.8-19.5-8.5
										c-3-7.7,0.8-16.4,8.5-19.5c7.7-3,16.4,0.8,19.5,8.5C449.9,235,446.1,243.7,438.4,246.7z"/>
									<path class="st17" d="M497.5,235.9l-19.3-49.3c-5.3-13.5-21.1-19.6-34.1-13.1l-10.1,5.1l-6.8,3.4l-17.8,9
										c-11.4,5.7-16.6,19.2-11.9,31.1l16.7,42.6c4.7,11.9,17.6,18.2,29.9,14.7l37.3-10.8c3-0.9,5.8-2.3,8.2-4.1
										c1.8-1.4,3.4-3,4.8-4.9C499.2,253,500.7,244.2,497.5,235.9z M438.3,246.7c-7.7,3-16.4-0.8-19.5-8.5
										c-3-7.7,0.8-16.4,8.5-19.5c7.7-3,16.4,0.8,19.5,8.5C449.9,235,446.1,243.7,438.3,246.7z"/>
									<path class="st8" d="M444.4,176.8l-32.5,16.3c-10.7,5.4-15.5,18-11.2,29.1l15.7,40c4.4,11.1,16.5,17.1,28,13.8l35-10.1
										c13.1-3.8,20.1-18,15.1-30.7L476.4,189C471.4,176.3,456.6,170.6,444.4,176.8z M418.9,238.2c-3-7.7,0.8-16.4,8.5-19.5
										c7.7-3,16.4,0.8,19.5,8.5c3,7.7-0.8,16.4-8.5,19.5C430.6,249.8,421.9,245.9,418.9,238.2z"/>
									<path class="st18" d="M444.4,176.8l-32.5,16.3c-10.7,5.4-15.5,18-11.2,29.1l15.7,40c4.4,11.1,16.5,17.1,28,13.8l35-10.1
										c13.1-3.8,20.1-18,15.1-30.7L476.4,189C471.4,176.3,456.6,170.6,444.4,176.8z M418.9,238.2c-3-7.7,0.8-16.4,8.5-19.5
										c7.7-3,16.4,0.8,19.5,8.5c3,7.7-0.8,16.4-8.5,19.5C430.6,249.8,421.9,245.9,418.9,238.2z"/>
									<g>
										<path class="st8" d="M606,161.3l-1,1.8l-0.6,1l-1.6,2.9l0.7,7.3c0,0.3,0,0.6-0.1,0.9c-0.2,0.6-0.7,1.2-1.3,1.4l-13.7,5.4
											c-0.6,0.3-1.4,0.2-1.9-0.1c-0.2-0.1-0.4-0.2-0.5-0.4l-7.7-7.9l0,0l-11,4.3l1.6,4.1l-11,4.3l2.6,6.7l-8.1,3.2
											c-0.7,0.3-1.4,0.2-2-0.1c-0.2-0.1-0.4-0.2-0.6-0.4l-4.7-4.4l-11,4.3l2.6,6.7l-11.6,4.5l2.6,6.7c0.4,1.1-0.1,2.3-1.2,2.8
											l-31.7,12.4L481,193.7l114.7-44.9l1.8,0.9l5.8,3C606.5,154.3,607.7,158.2,606,161.3z"/>
									</g>
									<g class="st19">
										<path class="st10" d="M606,161.3l-1,1.8l-0.6,1l-1.6,2.9l0.7,7.3c0,0.3,0,0.6-0.1,0.9c-0.2,0.6-0.7,1.2-1.3,1.4l-13.7,5.4
											c-0.6,0.3-1.4,0.2-1.9-0.1c-0.2-0.1-0.4-0.2-0.5-0.4l-7.7-7.9l0,0l-11,4.3l1.6,4.1l-11,4.3l2.6,6.7l-8.1,3.2
											c-0.7,0.3-1.4,0.2-2-0.1c-0.2-0.1-0.4-0.2-0.6-0.4l-4.7-4.4l-11,4.3l2.6,6.7l-11.6,4.5l2.6,6.7c0.4,1.1-0.1,2.3-1.2,2.8
											l-31.7,12.4L481,193.7l114.7-44.9l1.8,0.9l5.8,3C606.5,154.3,607.7,158.2,606,161.3z"/>
									</g>
								</g>
								<path class="st8" d="M605.5,157.3l-122.7,48l-3.6-9l117-45.8l5.8,3C604.3,154.7,605.5,155.7,605.5,157.3z"/>
								<path class="st19" d="M605.5,157.3l-122.7,48l-3.6-9l117-45.8l5.8,3C604.3,154.7,605.5,155.7,605.5,157.3z"/>
								<path class="st8" d="M603.1,164.1l-1.2,2.7c0,0,0,0.1,0,0.1l0.7,7.3c0,0.3,0,0.5-0.1,0.8c0,0.1-0.1,0.2-0.2,0.2l-14.9,5.9
									c-0.1,0-0.2,0-0.2,0c-0.1-0.1-0.3-0.2-0.4-0.3l-8.5-8.6c-0.1-0.1-0.2-0.1-0.3-0.1l-12.1,4.8c-0.1,0.1-0.2,0.2-0.2,0.4
									l1.4,3.6c0.1,0.1,0,0.3-0.2,0.4l-10.3,4.1c-0.1,0.1-0.2,0.2-0.2,0.4l2.5,6.3c0.1,0.1,0,0.3-0.2,0.4l-7.6,3
									c-0.1,0-0.2,0-0.2,0c-0.2-0.1-0.3-0.2-0.4-0.3l-5.5-5.1c-0.1-0.1-0.2-0.1-0.3-0.1l-12,4.7c-0.1,0.1-0.2,0.2-0.2,0.4l2.5,6.5
									c0.1,0.1,0,0.3-0.2,0.4l-46.1,18.2c-0.1,0.1-0.3,0-0.4-0.2l-4.6-11.6c-0.1-0.1,0-0.3,0.2-0.4l120.2-47.3
									c0.2-0.1,0.5,0.1,0.4,0.4L603.1,164.1z"/>
								<path class="st19" d="M603.1,164.1l-1.2,2.7c0,0,0,0.1,0,0.1l0.7,7.3c0,0.3,0,0.5-0.1,0.8c0,0.1-0.1,0.2-0.2,0.2l-14.9,5.9
									c-0.1,0-0.2,0-0.2,0c-0.1-0.1-0.3-0.2-0.4-0.3l-8.5-8.6c-0.1-0.1-0.2-0.1-0.3-0.1l-12.1,4.8c-0.1,0.1-0.2,0.2-0.2,0.4
									l1.4,3.6c0.1,0.1,0,0.3-0.2,0.4l-10.3,4.1c-0.1,0.1-0.2,0.2-0.2,0.4l2.5,6.3c0.1,0.1,0,0.3-0.2,0.4l-7.6,3
									c-0.1,0-0.2,0-0.2,0c-0.2-0.1-0.3-0.2-0.4-0.3l-5.5-5.1c-0.1-0.1-0.2-0.1-0.3-0.1l-12,4.7c-0.1,0.1-0.2,0.2-0.2,0.4l2.5,6.5
									c0.1,0.1,0,0.3-0.2,0.4l-46.1,18.2c-0.1,0.1-0.3,0-0.4-0.2l-4.6-11.6c-0.1-0.1,0-0.3,0.2-0.4l120.2-47.3
									c0.2-0.1,0.5,0.1,0.4,0.4L603.1,164.1z"/>
								<line class="st18" x1="535" y1="201.6" x2="488.9" y2="219.8"/>
							</g>
							<path class="st14" d="M426.5,215c-9.7,3.8-14.5,14.7-10.7,24.4c3.8,9.7,14.7,14.5,24.4,10.7c9.7-3.8,14.5-14.7,10.7-24.4
								C447.1,216,436.2,211.2,426.5,215z M438.4,246.7c-7.7,3-16.5-0.8-19.5-8.5c-3-7.7,0.8-16.4,8.5-19.5c7.7-3,16.4,0.8,19.5,8.5
								C449.9,235,446.1,243.7,438.4,246.7z"/>
						</g>
						<g>
							<path class="st17" d="M494.3,259.6c-1.3,1.8-2.9,3.5-4.8,4.9l-62.3-82.5l-0.1-0.1c0,0,5.5-2.8,6.7-3.6c0,0.1,0,0.2,0.1,0.3
								C436.7,184.4,485.7,248,494.3,259.6z"/>
							<path class="st17" d="M485.3,267.1c-0.4,0.2-18.5,5.7-18.5,5.7L446.6,246c5.2-5.1,7.2-13.1,4.3-20.3
								c-3.8-9.7-14.7-14.5-24.4-10.7c-0.9,0.3-1.7,0.7-2.4,1.2l-17.9-23.7c0,0,15.7-7.5,17.5-8.6
								C424.1,187.2,485.3,266.4,485.3,267.1z"/>
						</g>
					</g>
				</g>
				<path class="st7" d="M411.1,136.9c-2,2.4-2.9,5.8-2.2,8.9c0.7,3.1,2.9,5.8,5.7,7.1c1.5,0.7,3.1,1,4.6,1.7c1.5,0.7,2.8,2,3,3.6
					c0.2,1.8-1.2,3.5-1,5.3c0.1,1.6,1.4,3,2.7,4c1.3,1,2.8,2,3.5,3.5c0.7,1.5,0.3,3.7-1.3,4.1c-0.3,0.5-0.5,1.7,0,2.2
					c0.4,0.4,1.2,0.5,1.7,0.2c2.4-1.5,4.1-4.3,4.1-7.2c0-2.9-1.8-5.7-4.4-6.9c-0.5-1-0.1-2.2,0.3-3.2c0.8-2,1.6-4,2.4-6
					c0.3-0.8,0-2.2-0.5-2.8c-0.5-0.6-1.3-1-2.1-1.3l-5.1-2.2c-1.9-0.8-7.7-8.5-0.9-10.7c-0.9-2-2.4-2.6-4.5-3
					C414.8,133.8,412.5,135.3,411.1,136.9z"/>
			</g>
			<g>
				<path class="st7" d="M420.3,128.7c-0.2,2-0.3,4-0.5,6.1c1.7-2.8,4.8-8.2,4.7-8C423.2,127.5,421.7,128,420.3,128.7z"/>
			</g>
			<g>
				<path class="st7" d="M422.6,132c2.4-2.2,4.7-4.4,7.1-6.6c-1.8-0.7-4-0.2-5.4,1.2C424.4,126.5,423.3,129.9,422.6,132z"/>
			</g>
		</g>
		<path class="st7" d="M408.2,296c-9.2,11.5-6.2,20.3-18.9,40.6c16.1,11.9,33.7,13.9,55.7,12.2c2.6-4.6,3.9-9.4,6.5-14
			c3.7,4.6,6.7,8.5,10.4,13.1c11.5-1.8,25.1-5,34.2-10.9c-8-9.2-13-20.7-18.2-30.9c-2.4-4.8-1.4-6.8-7.8-13
			c-20.4,0.9-40.6,1.4-60.9,2.4C409.8,295.6,407.7,296,408.2,296z"/>
		<g>
			<g>
				<path class="st8" d="M410.7,294.1l-1.3,5.4c-0.2,0.4,0.3,0.8,1,0.8l56.1-2.5c0.5,0,1-0.3,1-0.6l0.3-5.3c0-0.4-0.5-0.7-1-0.6
					l-55.2,2.4C411.3,293.6,410.9,293.8,410.7,294.1z"/>
				<path class="st8" d="M410.7,294.1l-1.3,5.4c-0.2,0.4,0.3,0.8,1,0.8l56.1-2.5c0.5,0,1-0.3,1-0.6l0.3-5.3c0-0.4-0.5-0.7-1-0.6
					l-55.2,2.4C411.3,293.6,410.9,293.8,410.7,294.1z"/>
			</g>
			<g>
				<path class="st7" d="M423.1,300.2l-1.6,0.1c-0.3,0-0.6-0.1-0.5-0.3l0.4-6.9c0-0.2,0.3-0.4,0.6-0.4l1.6-0.1
					c0.3,0,0.6,0.1,0.5,0.4l-0.4,6.9C423.7,300,423.4,300.2,423.1,300.2z"/>
				<path class="st7" d="M463.6,298.5l-1.6,0.1c-0.3,0-0.6-0.1-0.5-0.3l0.4-6.9c0-0.2,0.3-0.4,0.6-0.4l1.6-0.1
					c0.3,0,0.6,0.1,0.5,0.3l-0.4,6.9C464.2,298.3,463.9,298.5,463.6,298.5z"/>
			</g>
		</g>
	</g>
	<g>
		<g>
			<g>
				<path class="st13" d="M430.3,266.6c0.1,0.5,4.5,7.4,7.9,7c0,0,0.1,0,0.1,0c1-0.1,2,0.3,2.6,1.1c1.4,1.8,2.2,2.8,3.1,4
					c1.5,1.9,4.1,2.5,6.3,1.5c0.7-0.3,1.3-0.6,1.9-1c2.1-1.1,3.2-3.5,2.6-5.9c-0.6-2.5-1.6-5-2.9-7.3c-0.4-0.8-1-1.6-1.7-2
					c-0.8-0.5-8.3-2.7-11.2-2.6C436,261.4,433.1,265.3,430.3,266.6z"/>
			</g>
			<g>
				<path class="st13" d="M439.1,261c0,0-46.1-14-56-4.7c-5.8,5.5-3.1,10.6,0.2,13.9c2.4,2.5,7.7,1.9,11.2,1.7l36.3-3.6L439.1,261z"
					/>
			</g>
		</g>
		<path class="st7" d="M412.6,254.7c-0.3-2.5-2.2-4.6-4.4-5.7c-2.2-1.1-4.8-1.4-7.3-1.8c-5.8-0.7-11.6-1.5-17.4-2.2
			c-2.9,3.7-5.1,8.8-5,13.6c0.1,4.7,1.9,9.4,5,13c2.8-5.4,6.4-10.9,11.8-13.5C400.8,255.4,406.7,253.6,412.6,254.7z"/>
	</g>
</g>
<path class="st17" d="M400.8,170.5c-0.1-0.1-0.1-0.2,0-0.2C401.1,170.2,401.1,170.3,400.8,170.5z"/>
<g>
	<path class="st8" d="M515.2,95.9l12.8,23.8l52.4-44.5c0.5-0.4-0.1-1.1-0.6-0.8l-49.1,32.4l-7.6-14.8L515.2,95.9z"/>
	<path class="st20" d="M597.9,96c0,21.2-22.3,38.4-49.7,38.4c-10.5,0-20.3-2.5-28.4-6.9l-29.2,12.7l18.4-20.5
		c-6.6-6.5-10.6-14.7-10.6-23.7c0-21.2,22.3-38.4,49.7-38.4C575.6,57.6,597.9,74.8,597.9,96z"/>
</g>
</svg>
